<?xml version="1.0" encoding="utf-8"?>
<!-- Generator: Adobe Illustrator 19.0.0, SVG Export Plug-In . SVG Version: 6.00 Build 0)  -->
<!DOCTYPE svg PUBLIC "-//W3C//DTD SVG 1.1//EN" "http://www.w3.org/Graphics/SVG/1.1/DTD/svg11.dtd">
<svg version="1.1" id="Layer_1" xmlns="http://www.w3.org/2000/svg" xmlns:xlink="http://www.w3.org/1999/xlink" x="0px" y="0px"
	 viewBox="-395 411.7 408 379.3" style="enable-background:new -395 411.7 408 379.3;" xml:space="preserve">
<style type="text/css">
	.st0{display:none;fill:#BA1E2F;}
	.st1{display:none;fill:#82000F;}
	.st2{display:none;fill:#FFFFFF;}
	.st3{display:none;fill:none;}
	.st4{display:none;}
	.st5{display:inline;}
	.st6{display:inline;clip-path:url(#XMLID_3_);}
	.st7{fill:#F5C000;}
	.st8{clip-path:url(#SVGID_2_);fill:#808080;stroke:#000000;stroke-width:3;stroke-miterlimit:10;}
	.st9{opacity:0.6;enable-background:new    ;}
	.st10{clip-path:url(#SVGID_4_);fill:#FFFFFF;}
	.st11{opacity:0.2;enable-background:new    ;}
	.st12{clip-path:url(#SVGID_6_);fill:#030303;}
	.st13{fill:none;stroke:#000000;stroke-width:3;stroke-miterlimit:10;}
	.st14{fill:#5D5D5D;}
	.st15{fill:#FFFFFF;}
	.st16{fill-rule:evenodd;clip-rule:evenodd;fill:#FFFFFF;}
	.st17{fill:none;}
	.st18{clip-path:url(#XMLID_4_);}
	.st19{fill:#E2E2E2;stroke:#000000;stroke-width:3;stroke-miterlimit:10;}
	.st20{fill:#540010;stroke:#000000;stroke-width:3;stroke-miterlimit:10;}
	.st21{fill:#E2617A;stroke:#000000;stroke-width:3;stroke-miterlimit:10;}
	.st22{opacity:0.4;}
	.st23{fill:#FFFFFF;stroke:#000000;stroke-width:3;stroke-miterlimit:10;}
	.st24{stroke:#000000;stroke-width:3;stroke-miterlimit:10;}
</style>
<path class="st0" d="M-192.9,421.8c1.1-0.8,2.8-0.8,3.9,0l8,5.7c1.1,0.8,2.9,0.9,4,0.3l8.7-4.6c1.1-0.6,2.9-0.4,3.8,0.5l7.2,6.7
	c0.9,0.9,2.7,1.2,3.9,0.8l9.3-3.4c1.2-0.5,2.9,0,3.7,1l6.2,7.6c0.8,1,2.5,1.6,3.8,1.3l9.6-2.1c1.3-0.3,2.9,0.4,3.6,1.5l5.2,8.4
	c0.7,1.1,2.3,1.9,3.6,1.8l9.8-0.8c1.3-0.1,2.8,0.8,3.3,2l4,9c0.5,1.2,2,2.2,3.3,2.3l9.8,0.5c1.3,0.1,2.7,1.1,3,2.4l2.8,9.5
	c0.4,1.2,1.7,2.5,3,2.7l9.7,1.8c1.3,0.2,2.5,1.5,2.7,2.8l1.5,9.7c0.2,1.3,1.4,2.7,2.6,3.1l9.4,3.1c1.2,0.4,2.3,1.8,2.3,3.1l0.2,9.8
	c0,1.3,1,2.8,2.2,3.4l8.9,4.3c1.2,0.6,2,2.1,1.9,3.4l-1.1,9.8c-0.1,1.3,0.6,2.9,1.7,3.7l8.2,5.4c1.1,0.7,1.7,2.3,1.4,3.6l-2.4,9.5
	c-0.3,1.3,0.2,3,1.2,3.8l7.4,6.5c1,0.8,1.4,2.5,0.9,3.8l-3.7,9.1c-0.5,1.2-0.2,3,0.7,4l6.5,7.4c0.9,1,1,2.7,0.4,3.8l-4.9,8.6
	c-0.6,1.1-0.6,2.9,0.1,4l5.4,8.2c0.7,1.1,0.7,2.8-0.1,3.9l-6,7.8c-0.8,1-1,2.8-0.4,4l4.3,8.9c0.6,1.2,0.3,2.9-0.6,3.8l-7,7
	c-0.9,0.9-1.3,2.7-0.9,3.9l3.1,9.4c0.4,1.2-0.1,2.9-1.1,3.7l-7.8,6c-1,0.8-1.7,2.5-1.5,3.8l1.8,9.7c0.2,1.3-0.5,2.9-1.6,3.5
	l-8.6,4.9c-1.1,0.6-2,2.2-1.9,3.5l0.5,9.8c0.1,1.3-0.9,2.8-2.1,3.2l-9.1,3.7c-1.2,0.5-2.3,1.9-2.4,3.2l-0.8,9.8
	c-0.1,1.3-1.2,2.6-2.5,2.9l-9.5,2.4c-1.3,0.3-2.5,1.6-2.8,2.9l-2.1,9.6c-0.3,1.3-1.6,2.4-2.9,2.6l-9.8,1.2c-1.3,0.1-2.7,1.3-3.2,2.5
	l-3.4,9.2c-0.4,1.2-1.9,2.2-3.2,2.2l-9.9-0.2c-1.3,0-2.9,0.9-3.5,2.1l-4.6,8.7c-0.6,1.1-2.1,1.9-3.4,1.7l-9.8-1.5
	c-1.3-0.2-3,0.5-3.7,1.6l-5.7,8c-0.8,1.1-2.4,1.6-3.6,1.3l-9.5-2.8c-1.2-0.4-3,0.1-3.9,1.1l-6.7,7.2c-0.9,1-2.6,1.3-3.8,0.8l-9-4
	c-1.2-0.5-3-0.3-4,0.5l-7.6,6.2c-1,0.8-2.8,0.9-3.9,0.3l-8.4-5.1c-1.1-0.7-2.9-0.7-4,0l-8.4,5.1c-1.1,0.7-2.8,0.6-3.8-0.3l-7.6-6.2
	c-1-0.8-2.8-1.1-4-0.5l-9,4c-1.2,0.5-2.9,0.2-3.8-0.8l-6.7-7.2c-0.9-0.9-2.7-1.4-3.9-1.1l-9.4,2.8c-1.2,0.4-2.9-0.2-3.6-1.3l-5.7-8
	c-0.8-1.1-2.4-1.8-3.7-1.6l-9.7,1.5c-1.3,0.2-2.9-0.6-3.5-1.7l-4.6-8.7c-0.6-1.2-2.2-2.1-3.5-2.1l-9.8,0.2c-1.3,0-2.7-1-3.2-2.2
	l-3.4-9.2c-0.4-1.2-1.9-2.4-3.2-2.5l-9.8-1.2c-1.3-0.1-2.6-1.3-2.9-2.6l-2.1-9.6c-0.3-1.3-1.5-2.6-2.8-2.9l-9.6-2.4
	c-1.3-0.3-2.4-1.7-2.5-2.9l-0.8-9.8c-0.1-1.3-1.2-2.8-2.4-3.2l-9.1-3.7c-1.2-0.5-2.1-2-2.1-3.2l0.5-9.8c0.1-1.3-0.8-2.9-1.9-3.5
	l-8.6-4.9c-1.1-0.6-1.9-2.2-1.6-3.5l1.8-9.7c0.2-1.3-0.4-3-1.5-3.8l-7.8-6c-1-0.8-1.5-2.4-1.1-3.7l3.1-9.4c0.4-1.2,0-3-0.9-3.9l-7-7
	c-0.9-0.9-1.2-2.6-0.6-3.8l4.3-8.9c0.6-1.2,0.4-3-0.4-4l-6-7.8c-0.8-1-0.9-2.8-0.1-3.9l5.4-8.2c0.7-1.1,0.8-2.9,0.1-4l-4.9-8.6
	c-0.6-1.1-0.5-2.9,0.4-3.8l6.5-7.4c0.8-1,1.2-2.8,0.7-4l-3.7-9.1c-0.5-1.2-0.1-2.9,0.9-3.8l7.4-6.5c1-0.9,1.5-2.6,1.2-3.8l-2.4-9.5
	c-0.3-1.3,0.3-2.9,1.4-3.6l8.2-5.4c1.1-0.7,1.9-2.4,1.7-3.7l-1.1-9.8c-0.2-1.3,0.7-2.8,1.9-3.4l8.9-4.3c1.2-0.6,2.1-2.1,2.2-3.4
	l0.2-9.8c0-1.3,1-2.7,2.3-3.1l9.4-3.1c1.2-0.4,2.4-1.8,2.6-3.1l1.5-9.7c0.2-1.3,1.4-2.5,2.7-2.8l9.7-1.8c1.3-0.2,2.6-1.5,3-2.7
	l2-9.5c0.4-1.2,1.7-2.3,3-2.4l9.9-0.5c1.3-0.1,2.8-1.1,3.3-2.3l4-9c0.5-1.2,2-2.1,3.3-2l9.8,0.8c1.3,0.1,2.9-0.7,3.6-1.8l5.2-8.4
	c0.7-1.1,2.3-1.8,3.6-1.5l9.6,2.1c1.3,0.3,3-0.3,3.8-1.3l6.2-7.6c0.8-1,2.5-1.5,3.7-1l9.3,3.4c1.2,0.5,3,0.1,4-0.8l7.2-6.7
	c1-0.9,2.7-1.1,3.8-0.5l8.7,4.6c1.2,0.6,3,0.5,4-0.3L-192.9,421.8z"/>
<path class="st1" d="M-39.4,606.1c0,83.6-67.9,151.4-151.6,151.4s-151.6-67.8-151.6-151.4s67.9-151.4,151.6-151.4
	S-39.4,522.5-39.4,606.1z"/>
<path class="st2" d="M-176.9,443.1c2.2,0.2,4-0.7,4.1-1.9s-1.6-2.4-3.7-2.6c-2.2-0.2-4,0.7-4.1,1.9
	C-180.7,441.7-179.1,442.9-176.9,443.1z M-205.1,769.1c-2.2-0.2-4,0.7-4.1,1.9c-0.1,1.2,1.6,2.4,3.7,2.6c2.2,0.2,4-0.7,4.1-1.9
	S-202.9,769.3-205.1,769.1z M-219.3,767.3c-2.1-0.4-4.1,0.3-4.3,1.5c-0.2,1.2,1.4,2.5,3.5,2.9c2.2,0.4,4.1-0.3,4.3-1.5
	S-217.1,767.7-219.3,767.3z M-162.7,444.9c2.1,0.4,4.1-0.3,4.3-1.5c0.2-1.2-1.4-2.5-3.5-2.9c-2.1-0.4-4,0.3-4.2,1.5
	C-166.4,443.2-164.9,444.5-162.7,444.9z M-148.7,448c2.1,0.6,4.1,0.1,4.4-1.1c0.3-1.2-1.1-2.6-3.2-3.2c-2.1-0.6-4.1,0-4.4,1.2
	C-152.3,446-150.8,447.4-148.7,448z M-233.3,764.2c-2.1-0.6-4.1,0-4.4,1.2c-0.3,1.2,1.1,2.6,3.2,3.2c2.1,0.6,4.1,0,4.4-1.1
	C-229.7,766.2-231.2,764.8-233.3,764.2z M-135.1,452.3c2,0.7,4,0.4,4.5-0.8c0.4-1.2-0.9-2.7-2.9-3.5c-2-0.7-4-0.4-4.5,0.8
	C-138.4,450-137.1,451.5-135.1,452.3z M-246.9,759.9c-2.1-0.7-4.1-0.4-4.5,0.8s0.9,2.7,2.9,3.4c2.1,0.7,4,0.4,4.5-0.8
	C-243.6,762.2-244.9,760.7-246.9,759.9z M-260.1,754.5c-2-0.9-4-0.8-4.5,0.4c-0.5,1.1,0.6,2.8,2.6,3.7s4,0.8,4.5-0.4
	C-257,757.1-258.2,755.4-260.1,754.5z M-121.9,457.7c2,0.9,4,0.8,4.5-0.4c0.5-1.1-0.6-2.8-2.6-3.7s-4-0.8-4.5,0.4
	C-125,455.2-123.8,456.8-121.9,457.7z M-109.2,464.3c1.9,1.1,3.9,1.1,4.5,0s-0.4-2.8-2.3-3.9c-1.9-1.1-3.9-1.1-4.5,0
	C-112.1,461.5-111,463.2-109.2,464.3z M-272.8,747.9c-1.9-1.1-3.9-1.1-4.5,0c-0.6,1.1,0.4,2.8,2.3,3.9c1.9,1.1,3.9,1.1,4.5,0
	C-269.9,750.7-270.9,749-272.8,747.9z M-284.9,740.3c-1.8-1.2-3.8-1.4-4.5-0.4c-0.7,1,0.2,2.9,1.9,4.1c1.7,1.2,3.8,1.4,4.5,0.4
	C-282.3,743.3-283.1,741.5-284.9,740.3z M-97.1,472c1.8,1.2,3.8,1.4,4.5,0.4s-0.1-2.9-1.9-4.1c-1.8-1.2-3.8-1.4-4.5-0.4
	S-98.9,470.7-97.1,472z M-81.3,481.5c0.8-1,0.1-2.9-1.6-4.2c-1.7-1.4-3.7-1.7-4.5-0.8c-0.8,0.9-0.1,2.8,1.6,4.2
	C-84,482-82.1,482.4-81.3,481.5z M-300.7,730.8c-0.8,1-0.1,2.9,1.6,4.2c1.7,1.4,3.7,1.8,4.5,0.8c0.8-1,0.1-2.9-1.6-4.2
	C-297.9,730.2-299.9,729.8-300.7,730.8z M-311.2,720.7c-0.9,0.9-0.3,2.8,1.2,4.4c1.5,1.6,3.5,2.1,4.4,1.2c0.9-0.9,0.3-2.8-1.2-4.4
	C-308.4,720.4-310.3,719.9-311.2,720.7z M-70.8,491.5c0.9-0.9,0.3-2.8-1.2-4.4c-1.5-1.5-3.5-2.1-4.4-1.2c-0.9,0.9-0.4,2.8,1.2,4.4
	C-73.6,491.8-71.7,492.4-70.8,491.5z M-320.8,709.8c-0.9,0.8-0.6,2.8,0.8,4.4s3.3,2.4,4.2,1.6c0.9-0.8,0.6-2.8-0.8-4.4
	C-317.9,709.7-319.8,709-320.8,709.8z M-61.2,502.4c1-0.8,0.6-2.8-0.8-4.5c-1.4-1.7-3.3-2.4-4.2-1.6c-0.9,0.8-0.6,2.8,0.8,4.5
	C-64.1,502.5-62.2,503.2-61.2,502.4z M-52.7,514.1c1-0.7,0.8-2.7-0.4-4.5c-1.2-1.8-3.1-2.6-4.1-1.9s-0.8,2.7,0.4,4.5
	C-55.5,513.9-53.7,514.8-52.7,514.1z M-329.3,698.2c-1,0.7-0.8,2.7,0.4,4.5c1.2,1.8,3.1,2.6,4.1,1.9c1-0.7,0.8-2.7-0.4-4.5
	C-326.5,698.3-328.3,697.4-329.3,698.2z M-336.8,685.8c-1.1,0.6-1.1,2.6,0,4.5c1.1,1.9,2.8,2.9,3.9,2.3c1.1-0.6,1.1-2.7,0-4.5
	C-334,686.2-335.8,685.1-336.8,685.8z M-45.1,526.4c1.1-0.6,1.1-2.7,0-4.5c-1.1-1.9-2.8-2.9-3.9-2.3c-1.1,0.6-1.1,2.6,0,4.5
	C-48,526.1-46.2,527.1-45.1,526.4z M-38.8,539.4c1.1-0.5,1.3-2.6,0.4-4.5c-0.9-2-2.6-3.1-3.7-2.6s-1.3,2.5-0.4,4.5
	C-41.5,538.8-39.9,540-38.8,539.4z M-343.2,672.8c-1.1,0.5-1.3,2.5-0.4,4.5s2.6,3.1,3.7,2.6s1.3-2.5,0.4-4.5
	C-340.5,673.4-342.1,672.2-343.2,672.8z M-348.5,659.3c-1.2,0.4-1.5,2.4-0.8,4.5c0.7,2,2.3,3.3,3.5,2.9c1.2-0.4,1.5-2.4,0.8-4.4
	C-345.8,660.2-347.3,658.8-348.5,659.3z M-33.5,552.9c1.2-0.4,1.5-2.4,0.8-4.5c-0.7-2-2.3-3.3-3.5-2.9s-1.5,2.4-0.8,4.5
	C-36.2,552.1-34.7,553.4-33.5,552.9z M-349.3,648.6c-0.6-2.1-2-3.5-3.2-3.2c-1.2,0.3-1.7,2.3-1.1,4.4c0.6,2.1,2,3.5,3.2,3.2
	C-349.3,652.6-348.8,650.7-349.3,648.6z M-32.6,563.6c0.6,2.1,2,3.5,3.2,3.2s1.7-2.3,1.1-4.4c-0.6-2.1-2-3.5-3.2-3.2
	C-32.7,559.6-33.2,561.5-32.6,563.6z M-352.5,634.6c-0.4-2.1-1.7-3.7-2.9-3.5c-1.2,0.2-1.9,2.1-1.5,4.3c0.4,2.1,1.7,3.7,2.9,3.5
	C-352.8,638.7-352.1,636.8-352.5,634.6z M-29.5,577.6c0.4,2.1,1.7,3.7,2.9,3.5c1.2-0.2,1.9-2.1,1.5-4.2c-0.4-2.1-1.7-3.7-2.9-3.5
	C-29.2,573.5-29.9,575.4-29.5,577.6z M-354.3,620.5c-0.2-2.2-1.3-3.8-2.6-3.7c-1.2,0.1-2.1,1.9-1.9,4.1c0.2,2.2,1.3,3.8,2.6,3.7
	C-355,624.5-354.1,622.6-354.3,620.5z M-27.7,591.7c0.2,2.2,1.3,3.8,2.6,3.7c1.2-0.1,2.1-1.9,1.9-4.1s-1.3-3.8-2.6-3.7
	C-27,587.7-27.9,589.6-27.7,591.7z M-357.2,610.1c1.2,0,2.2-1.8,2.2-3.9s-1-3.9-2.2-3.9c-1.2,0-2.2,1.8-2.2,3.9
	C-359.5,608.4-358.5,610.1-357.2,610.1z M-24.8,602.1c-1.2,0-2.2,1.8-2.2,3.9c0,2.2,1,3.9,2.2,3.9s2.2-1.8,2.2-3.9
	C-22.5,603.8-23.5,602.1-24.8,602.1z M-356.9,595.7c1.2,0.1,2.4-1.6,2.6-3.7c0.2-2.2-0.7-4-1.9-4.1c-1.2-0.1-2.4,1.6-2.6,3.7
	C-359,593.7-358.2,595.5-356.9,595.7z M-25.1,616.6c-1.2-0.1-2.4,1.6-2.6,3.7c-0.2,2.2,0.7,4,1.9,4.1c1.2,0.1,2.4-1.6,2.6-3.7
	C-23,618.5-23.8,616.7-25.1,616.6z M-26.6,631c-1.2-0.2-2.5,1.3-2.9,3.5c-0.4,2.1,0.3,4,1.5,4.3c1.2,0.2,2.5-1.3,2.9-3.5
	C-24.7,633.1-25.4,631.2-26.6,631z M-355.4,581.3c1.2,0.2,2.5-1.3,2.9-3.5c0.4-2.1-0.3-4.1-1.5-4.3c-1.2-0.2-2.5,1.3-2.9,3.5
	C-357.3,579.1-356.6,581-355.4,581.3z M-352.6,567c1.2,0.3,2.6-1.1,3.2-3.2c0.6-2.1,0.1-4.1-1.2-4.4c-1.2-0.3-2.6,1.1-3.2,3.2
	C-354.3,564.8-353.8,566.7-352.6,567z M-29.4,645.2c-1.2-0.3-2.6,1.1-3.2,3.2c-0.5,2.1,0,4.1,1.2,4.4s2.6-1.1,3.2-3.2
	C-27.7,647.4-28.2,645.5-29.4,645.2z M-33.4,659.1c-1.2-0.4-2.7,0.9-3.5,2.9c-0.7,2-0.4,4,0.8,4.4c1.2,0.4,2.7-0.9,3.4-2.9
	C-31.9,661.5-32.3,659.5-33.4,659.1z M-348.6,553.1c1.2,0.4,2.7-0.9,3.5-2.9c0.7-2,0.4-4-0.8-4.4c-1.2-0.4-2.7,0.9-3.5,2.9
	C-350.1,550.7-349.7,552.7-348.6,553.1z M-38.7,672.6c-1.1-0.5-2.8,0.6-3.7,2.6c-0.9,2-0.8,4,0.4,4.5c1.1,0.5,2.8-0.6,3.7-2.6
	S-37.5,673.1-38.7,672.6z M-343.3,539.6c1.1,0.5,2.8-0.7,3.7-2.6c0.9-2,0.8-4-0.4-4.5c-1.1-0.5-2.8,0.7-3.7,2.6
	C-344.6,537.1-344.5,539.1-343.3,539.6z M-333,524.3c1.1-1.9,1.1-3.9,0-4.5c-1.1-0.6-2.8,0.4-3.9,2.3c-1.1,1.9-1.1,3.9,0,4.5
	C-335.9,527.2-334.1,526.2-333,524.3z M-49,687.9c-1.1,1.9-1.1,3.9,0,4.5s2.8-0.4,3.9-2.3s1.1-3.9,0-4.5
	C-46.1,685-47.9,686-49,687.9z M-56.6,699.9c-1.2,1.8-1.4,3.8-0.4,4.5s2.9-0.2,4.1-1.9c1.2-1.8,1.4-3.8,0.4-4.5
	C-53.6,697.3-55.4,698.1-56.6,699.9z M-325.3,512.3c1.2-1.8,1.4-3.8,0.4-4.5c-1-0.7-2.8,0.2-4.1,1.9c-1.2,1.8-1.4,3.8-0.4,4.5
	S-326.6,514.1-325.3,512.3z M-65.4,711.3c-1.4,1.7-1.8,3.6-0.8,4.4s2.9,0.1,4.2-1.6c1.4-1.7,1.8-3.6,0.8-4.4
	C-62.1,708.9-64,709.6-65.4,711.3z M-316.6,501c1.4-1.7,1.8-3.7,0.8-4.5c-1-0.8-2.9-0.1-4.2,1.6c-1.4,1.7-1.8,3.7-0.8,4.5
	C-319.9,503.3-318,502.6-316.6,501z M-75,721.8c-1.5,1.5-2.1,3.5-1.2,4.4s2.8,0.4,4.4-1.2c1.5-1.5,2.1-3.5,1.2-4.4
	C-71.5,719.7-73.5,720.3-75,721.8z M-307,490.4c1.5-1.5,2.1-3.5,1.2-4.4c-0.9-0.9-2.8-0.3-4.4,1.2c-1.5,1.5-2.1,3.5-1.2,4.4
	S-308.5,492-307,490.4z M-85.6,731.4c-1.7,1.4-2.4,3.3-1.6,4.2c0.8,0.9,2.8,0.6,4.5-0.8s2.4-3.3,1.6-4.2S-83.9,730-85.6,731.4z
	 M-296.4,480.8c1.7-1.4,2.4-3.3,1.6-4.2c-0.8-0.9-2.8-0.6-4.5,0.8c-1.7,1.4-2.4,3.3-1.6,4.2C-300.1,482.5-298.1,482.2-296.4,480.8z
	 M-96.9,740.1c-1.8,1.2-2.6,3.1-1.9,4.1s2.7,0.8,4.5-0.4c1.8-1.2,2.6-3.1,1.9-4.1S-95.1,738.9-96.9,740.1z M-285.1,472.1
	c1.8-1.2,2.6-3.1,1.9-4.1c-0.7-1-2.7-0.8-4.5,0.4c-1.8,1.2-2.6,3.1-1.9,4.1C-288.9,473.5-286.9,473.3-285.1,472.1z M-109,747.8
	c-1.9,1.1-2.9,2.8-2.3,3.9s2.6,1.1,4.5,0s2.9-2.8,2.3-3.9C-105.1,746.7-107.1,746.7-109,747.8z M-273,464.4c1.9-1.1,2.9-2.8,2.3-3.9
	c-0.6-1.1-2.6-1.1-4.5,0c-1.9,1.1-2.9,2.8-2.3,3.9C-276.9,465.5-274.9,465.5-273,464.4z M-121.7,754.4c-2,0.9-3.1,2.6-2.6,3.7
	s2.5,1.3,4.5,0.4c2-0.9,3.1-2.6,2.6-3.7C-117.7,753.7-119.7,753.5-121.7,754.4z M-260.3,457.8c2-0.9,3.1-2.6,2.6-3.7
	s-2.5-1.3-4.5-0.4s-3.1,2.6-2.6,3.7C-264.3,458.6-262.3,458.7-260.3,457.8z M-134.9,759.9c-2,0.8-3.4,2.3-2.9,3.4
	c0.4,1.2,2.4,1.5,4.5,0.8c2-0.7,3.3-2.3,2.9-3.5C-130.9,759.5-132.9,759.1-134.9,759.9z M-247.1,452.3c2-0.8,3.4-2.3,2.9-3.5
	c-0.4-1.2-2.4-1.5-4.5-0.8c-2,0.7-3.4,2.3-2.9,3.4C-251.1,452.7-249.1,453.1-247.1,452.3z M-233.4,448c2.1-0.6,3.5-2,3.2-3.2
	c-0.3-1.2-2.3-1.7-4.4-1.2c-2.1,0.6-3.5,2-3.2,3.2C-237.5,448.1-235.6,448.6-233.4,448z M-148.5,764.2c-2.1,0.6-3.6,2-3.2,3.2
	c0.3,1.2,2.3,1.7,4.4,1.2c2.1-0.6,3.5-2,3.2-3.2C-144.5,764.1-146.4,763.6-148.5,764.2z M-162.5,767.3c-2.1,0.4-3.7,1.7-3.5,2.9
	s2.1,1.9,4.3,1.5c2.1-0.4,3.7-1.7,3.5-2.9C-158.5,767.6-160.4,766.9-162.5,767.3z M-219.5,444.9c2.1-0.4,3.7-1.7,3.5-2.9
	c-0.2-1.2-2.1-1.9-4.3-1.5c-2.1,0.4-3.7,1.7-3.5,2.9C-223.5,444.6-221.6,445.3-219.5,444.9z M-205.3,443.1c2.2-0.2,3.8-1.3,3.7-2.6
	c-0.1-1.2-1.9-2.1-4.1-1.9c-2.2,0.2-3.8,1.3-3.7,2.6C-209.3,442.4-207.5,443.3-205.3,443.1z M-176.7,769.1c-2.2,0.2-3.8,1.3-3.7,2.6
	c0.1,1.2,2,2.1,4.1,1.9c2.1-0.2,3.8-1.3,3.7-2.6S-174.5,768.9-176.7,769.1z M-191,438c-2.2,0-3.9,1-3.9,2.2s1.8,2.2,3.9,2.2
	c2.2,0,3.9-1,3.9-2.2S-188.8,438-191,438z M-191,769.8c-2.2,0-3.9,1-3.9,2.2c0,1.2,1.8,2.2,3.9,2.2c2.2,0,3.9-1,3.9-2.2
	C-187.1,770.8-188.8,769.8-191,769.8z"/>
<rect x="-395" y="421.3" class="st3" width="408" height="369.7"/>
<g class="st4">
	<defs>
		<path id="XMLID_18_" d="M-190.8,755c142.7,0,150.7-134,151.3-148c0.7-14,65.3-197.3,65.3-197.3s-259.3-58.4-271.3-58
			c-247.3,8-108,425.3-108,425.3l44.7-74.7C-308.8,702.4-265.5,755-190.8,755z"/>
	</defs>
	<clipPath id="XMLID_3_" class="st5">
		<use xlink:href="#XMLID_18_"  style="overflow:visible;"/>
	</clipPath>
	<g class="st6">
		<path class="st7" d="M-193.1,764.8c1.1,0,2.2,0,3.2,0c65.3-0.5,83.6-16.5,86.1-23.9c2.5-7.6-13.8-27.7-13.8-27.7s0-20.1-1.3-31.5
			c-1.3-11.4-27.7-27.7-27.7-27.7s-3.8-7.6-7.6-10.1s-10.1-5-10.1-5s-5-9.4-7.6-11.3c-2.5-1.9-11.3-6.3-11.3-6.3l10.1-69.2l-10.1-5
			v-5c0,0,6.3-1.9,6.3-5c0-3.1-3.8-6.3-3.8-6.3s-1.9-5.7,2.5-7.6c4.4-1.9,37.8-10.7,56.6-32.7c18.8-22,29.6-56,22.7-65.4
			c-6.9-9.4-42.8-5-42.8-5h-49.6h-0.7h-49.6c0,0-35.9-4.4-42.8,5c-6.9,9.4,3.8,43.4,22.7,65.4s52.2,30.8,56.6,32.7
			c4.4,1.9,2.5,7.6,2.5,7.6s-3.8,3.1-3.8,6.3s6.3,5,6.3,5v5l-10.1,5l10.1,69.2c0,0-8.8,4.4-11.3,6.3c-2.5,1.9-7.6,11.3-7.6,11.3
			s-6.3,2.5-10.1,5s-7.6,10.1-7.6,10.1s-26.4,16.4-27.7,27.7c-1.3,11.3-1.3,31.5-1.3,31.5s-16.4,20.1-13.8,27.7
			C-276.8,748.3-258.5,764.3-193.1,764.8z M-130.8,430.1c0,0,14.5-2.5,17.6,0s3.8,10.1,2.5,20.1c-1.3,10.1-13.8,25.2-13.8,25.2
			s-1.9-15.1-2.5-23.9C-127.6,442.7-130.8,430.1-130.8,430.1z M-251,430.1c0,0-3.1,12.6-3.8,21.4c-0.6,8.8-2.5,23.9-2.5,23.9
			s-12.6-15.1-13.8-25.2c-1.3-10.1-0.6-17.6,2.5-20.1S-251,430.1-251,430.1z"/>
		<g>
			<g>
				<defs>
					<path id="SVGID_1_" d="M-193.1,764.8c1.1,0,2.2,0,3.2,0c65.3-0.5,83.6-16.5,86.1-23.9c2.5-7.6-13.8-27.7-13.8-27.7
						s0-20.1-1.3-31.5c-1.3-11.4-27.7-27.7-27.7-27.7s-3.8-7.6-7.6-10.1s-10.1-5-10.1-5s-5-9.4-7.6-11.3c-2.5-1.9-11.3-6.3-11.3-6.3
						l10.1-69.2l-10.1-5v-5c0,0,6.3-1.9,6.3-5c0-3.1-3.8-6.3-3.8-6.3s-1.9-5.7,2.5-7.6c4.4-1.9,37.8-10.7,56.6-32.7
						c18.8-22,29.6-56,22.7-65.4c-6.9-9.4-42.8-5-42.8-5h-49.6h-0.7h-49.6c0,0-35.9-4.4-42.8,5c-6.9,9.4,3.8,43.4,22.7,65.4
						s52.2,30.8,56.6,32.7c4.4,1.9,2.5,7.6,2.5,7.6s-3.8,3.1-3.8,6.3s6.3,5,6.3,5v5l-10.1,5l10.1,69.2c0,0-8.8,4.4-11.3,6.3
						c-2.5,1.9-7.6,11.3-7.6,11.3s-6.3,2.5-10.1,5s-7.6,10.1-7.6,10.1s-26.4,16.4-27.7,27.7c-1.3,11.3-1.3,31.5-1.3,31.5
						s-16.4,20.1-13.8,27.7C-276.8,748.3-258.5,764.3-193.1,764.8z M-130.8,430.1c0,0,14.5-2.5,17.6,0s3.8,10.1,2.5,20.1
						c-1.3,10.1-13.8,25.2-13.8,25.2s-1.9-15.1-2.5-23.9C-127.6,442.7-130.8,430.1-130.8,430.1z M-251,430.1c0,0-3.1,12.6-3.8,21.4
						c-0.6,8.8-2.5,23.9-2.5,23.9s-12.6-15.1-13.8-25.2c-1.3-10.1-0.6-17.6,2.5-20.1S-251,430.1-251,430.1z"/>
				</defs>
				<clipPath id="SVGID_2_">
					<use xlink:href="#SVGID_1_"  style="overflow:visible;"/>
				</clipPath>
				<path class="st8" d="M-272.4,675.5c0,0,19.3,17.6,81.8,17.6s83.1-21.4,83.1-21.4l17.6,75.5c0,0-40.7,36.5-100.7,36.5
					s-103.2-31.5-103.2-31.5L-272.4,675.5z"/>
			</g>
		</g>
		<g class="st9">
			<g>
				<defs>
					<path id="SVGID_3_" d="M-193.1,764.8c1.1,0,2.2,0,3.2,0c65.3-0.5,83.6-16.5,86.1-23.9c2.5-7.6-13.8-27.7-13.8-27.7
						s0-20.1-1.3-31.5c-1.3-11.4-27.7-27.7-27.7-27.7s-3.8-7.6-7.6-10.1s-10.1-5-10.1-5s-5-9.4-7.6-11.3c-2.5-1.9-11.3-6.3-11.3-6.3
						l10.1-69.2l-10.1-5v-5c0,0,6.3-1.9,6.3-5c0-3.1-3.8-6.3-3.8-6.3s-1.9-5.7,2.5-7.6c4.4-1.9,37.8-10.7,56.6-32.7
						c18.8-22,29.6-56,22.7-65.4c-6.9-9.4-42.8-5-42.8-5h-49.6h-0.7h-49.6c0,0-35.9-4.4-42.8,5c-6.9,9.4,3.8,43.4,22.7,65.4
						s52.2,30.8,56.6,32.7c4.4,1.9,2.5,7.6,2.5,7.6s-3.8,3.1-3.8,6.3s6.3,5,6.3,5v5l-10.1,5l10.1,69.2c0,0-8.8,4.4-11.3,6.3
						c-2.5,1.9-7.6,11.3-7.6,11.3s-6.3,2.5-10.1,5s-7.6,10.1-7.6,10.1s-26.4,16.4-27.7,27.7c-1.3,11.3-1.3,31.5-1.3,31.5
						s-16.4,20.1-13.8,27.7C-276.8,748.3-258.5,764.3-193.1,764.8z M-130.8,430.1c0,0,14.5-2.5,17.6,0s3.8,10.1,2.5,20.1
						c-1.3,10.1-13.8,25.2-13.8,25.2s-1.9-15.1-2.5-23.9C-127.6,442.7-130.8,430.1-130.8,430.1z M-251,430.1c0,0-3.1,12.6-3.8,21.4
						c-0.6,8.8-2.5,23.9-2.5,23.9s-12.6-15.1-13.8-25.2c-1.3-10.1-0.6-17.6,2.5-20.1S-251,430.1-251,430.1z"/>
				</defs>
				<clipPath id="SVGID_4_">
					<use xlink:href="#SVGID_3_"  style="overflow:visible;"/>
				</clipPath>
				<path class="st10" d="M-113.9,768.6c0,0,1.9-28.3-2.5-32.7S-129,722-129,722l-1.3-37.8l-5-3.8c0,0-1.9-8.2-6.3-11.3
					c-4.4-3.1-11.3-7.6-11.3-7.6s0.6-8.2-3.8-10.1c-4.4-1.9-11.3-5-11.3-5l-5-5c0,0-1.3-7.6-3.8-8.8c-2.5-1.3-7.6-6.3-7.6-6.3l2.5-5
					l13.8-73l-1.3-20.1l45.3-21.4l54.1-56.6l-10.1-49.1l-31.5-7.6l-23.9,7.6c0,0,28.3,19.5,30.2,21.4c1.9,1.9,8.2,23.3-5,44
					c-13.2,20.8-23.9,33.3-32.7,39c-8.8,5.7-13.2,10.1-18.9,11.3c-5.7,1.3-18.9,6.3-18.9,6.3l-3.8,6.3c0,0,4.4,5,5,6.3
					c0.6,1.3-5,3.8-5,3.8l1.3,7.6l5,5l-6.3,64.2l-1.3,6.3c0,0-2.1,1.3-5,1.3s-4.6,0.8-6.3,1.3c-1.7,0.4-5,5-5,5s-5.9-0.4-7.6,2.5
					c-1.7,2.9-3.8,7.6-3.8,7.6s1.7,1.7,10.1,2.5c8.4,0.8,12.6,0,12.6,0l-12.6,6.3c0,0-13.8-2.5-17.6,0s-7.6,7.6-7.6,7.6
					s4.6,3.4,13.8,3.8s18.9,0,18.9,0l-8.8,6.3c0,0-18.5-4.2-25.2-1.3c-6.7,2.9-9.7,9.2-10.1,11.3c-0.4,2.1-1.3,5-1.3,5h-3.8
					c0,0-7.1-0.8-10.1-2.5c-2.9-1.7-5-3.8-5-3.8l-16.4-1.3l-8.8,75.5l109.5,59.1L-113.9,768.6z"/>
			</g>
		</g>
		<g class="st11">
			<g>
				<defs>
					<path id="SVGID_5_" d="M-193.1,764.8c1.1,0,2.2,0,3.2,0c65.3-0.5,83.6-16.5,86.1-23.9c2.5-7.6-13.8-27.7-13.8-27.7
						s0-20.1-1.3-31.5c-1.3-11.4-27.7-27.7-27.7-27.7s-3.8-7.6-7.6-10.1s-10.1-5-10.1-5s-5-9.4-7.6-11.3c-2.5-1.9-11.3-6.3-11.3-6.3
						l10.1-69.2l-10.1-5v-5c0,0,6.3-1.9,6.3-5c0-3.1-3.8-6.3-3.8-6.3s-1.9-5.7,2.5-7.6c4.4-1.9,37.8-10.7,56.6-32.7
						c18.8-22,29.6-56,22.7-65.4c-6.9-9.4-42.8-5-42.8-5h-49.6h-0.7h-49.6c0,0-35.9-4.4-42.8,5c-6.9,9.4,3.8,43.4,22.7,65.4
						s52.2,30.8,56.6,32.7c4.4,1.9,2.5,7.6,2.5,7.6s-3.8,3.1-3.8,6.3s6.3,5,6.3,5v5l-10.1,5l10.1,69.2c0,0-8.8,4.4-11.3,6.3
						c-2.5,1.9-7.6,11.3-7.6,11.3s-6.3,2.5-10.1,5s-7.6,10.1-7.6,10.1s-26.4,16.4-27.7,27.7c-1.3,11.3-1.3,31.5-1.3,31.5
						s-16.4,20.1-13.8,27.7C-276.8,748.3-258.5,764.3-193.1,764.8z M-130.8,430.1c0,0,14.5-2.5,17.6,0s3.8,10.1,2.5,20.1
						c-1.3,10.1-13.8,25.2-13.8,25.2s-1.9-15.1-2.5-23.9C-127.6,442.7-130.8,430.1-130.8,430.1z M-251,430.1c0,0-3.1,12.6-3.8,21.4
						c-0.6,8.8-2.5,23.9-2.5,23.9s-12.6-15.1-13.8-25.2c-1.3-10.1-0.6-17.6,2.5-20.1S-251,430.1-251,430.1z"/>
				</defs>
				<clipPath id="SVGID_6_">
					<use xlink:href="#SVGID_5_"  style="overflow:visible;"/>
				</clipPath>
				<path class="st12" d="M-267.4,768.6c0,0-1.9-28.3,2.5-32.7s12.6-13.8,12.6-13.8l1.3-37.8l5-3.8c0,0,1.9-8.2,6.3-11.3
					c4.4-3.1,11.3-7.6,11.3-7.6s-0.6-8.2,3.8-10.1c4.4-1.9,11.3-5,11.3-5l5-5c0,0,1.3-7.6,3.8-8.8c2.5-1.3,7.6-6.3,7.6-6.3l-2.5-5
					l-13.8-73l1.3-20.1l-45.3-21.4l-54.2-56.7l10.1-49.1l31.5-7.6l23.9,7.6c0,0-28.3,19.5-30.2,21.4s-8.2,23.3,5,44
					c13.2,20.7,23.9,33.3,32.7,39c8.8,5.7,13.2,10.1,18.9,11.3c5.7,1.3,18.9,6.3,18.9,6.3l3.8,6.3c0,0-4.4,5-5,6.3
					c-0.6,1.3,5,3.8,5,3.8l-1.3,7.6l-5,5l6.3,64.2l1.3,6.3c0,0,2.1,1.3,5,1.3s4.6,0.8,6.3,1.3c1.7,0.4,5,5,5,5s5.9-0.4,7.6,2.5
					c1.7,2.9,3.8,7.6,3.8,7.6s-1.7,1.7-10.1,2.5s-12.6,0-12.6,0l12.5,6.2c0,0,13.8-2.5,17.6,0s7.6,7.6,7.6,7.6s-4.6,3.4-13.8,3.8
					s-18.9,0-18.9,0l8.8,6.3c0,0,18.5-4.2,25.2-1.3c6.7,2.9,9.7,9.2,10.1,11.3c0.4,2.1,1.3,5,1.3,5h3.8c0,0,7.1-0.8,10.1-2.5
					c2.9-1.7,5-3.8,5-3.8l16.4-1.3l8.8,75.5l-109.5,59.1L-267.4,768.6z"/>
			</g>
		</g>
		<path class="st13" d="M-193.1,764.8c1.1,0,2.2,0,3.2,0c65.3-0.5,83.6-16.5,86.1-23.9c2.5-7.6-13.8-27.7-13.8-27.7s0-20.1-1.3-31.5
			c-1.3-11.4-27.7-27.7-27.7-27.7s-3.8-7.6-7.6-10.1s-10.1-5-10.1-5s-5-9.4-7.6-11.3c-2.5-1.9-11.3-6.3-11.3-6.3l10.1-69.2l-10.1-5
			v-5c0,0,6.3-1.9,6.3-5c0-3.1-3.8-6.3-3.8-6.3s-1.9-5.7,2.5-7.6c4.4-1.9,37.8-10.7,56.6-32.7c18.8-22,29.6-56,22.7-65.4
			c-6.9-9.4-42.8-5-42.8-5h-49.6h-0.7h-49.6c0,0-35.9-4.4-42.8,5c-6.9,9.4,3.8,43.4,22.7,65.4s52.2,30.8,56.6,32.7
			c4.4,1.9,2.5,7.6,2.5,7.6s-3.8,3.1-3.8,6.3s6.3,5,6.3,5v5l-10.1,5l10.1,69.2c0,0-8.8,4.4-11.3,6.3c-2.5,1.9-7.6,11.3-7.6,11.3
			s-6.3,2.5-10.1,5s-7.6,10.1-7.6,10.1s-26.4,16.4-27.7,27.7c-1.3,11.3-1.3,31.5-1.3,31.5s-16.4,20.1-13.8,27.7
			C-276.8,748.3-258.5,764.3-193.1,764.8z M-130.8,430.1c0,0,14.5-2.5,17.6,0s3.8,10.1,2.5,20.1c-1.3,10.1-13.8,25.2-13.8,25.2
			s-1.9-15.1-2.5-23.9C-127.6,442.7-130.8,430.1-130.8,430.1z M-251,430.1c0,0-3.1,12.6-3.8,21.4c-0.6,8.8-2.5,23.9-2.5,23.9
			s-12.6-15.1-13.8-25.2c-1.3-10.1-0.6-17.6,2.5-20.1S-251,430.1-251,430.1z"/>
	</g>
</g>
<path id="XMLID_187_" class="st14" d="M-191.9,422.1c1.1-0.8,2.8-0.8,3.9,0l8,5.7c1.1,0.8,2.9,0.9,4,0.3l8.7-4.6
	c1.1-0.6,2.9-0.4,3.8,0.5l7.2,6.7c0.9,0.9,2.7,1.2,3.9,0.8l9.3-3.4c1.2-0.4,2.9,0,3.7,1l6.2,7.6c0.8,1,2.5,1.6,3.8,1.3l9.6-2.1
	c1.3-0.3,2.9,0.4,3.6,1.5l5.2,8.4c0.7,1.1,2.3,1.9,3.6,1.8l9.8-0.8c1.3-0.1,2.8,0.8,3.3,2l4,9c0.5,1.2,2,2.2,3.3,2.3l9.8,0.5
	c1.3,0.1,2.7,1.1,3,2.4l2.8,9.5c0.4,1.2,1.7,2.5,3,2.7l9.7,1.8c1.3,0.2,2.5,1.5,2.7,2.8l1.5,9.7c0.2,1.3,1.4,2.7,2.6,3.1l9.4,3.1
	c1.2,0.4,2.3,1.8,2.3,3.1l0.2,9.8c0,1.3,1,2.8,2.2,3.4l8.9,4.3c1.2,0.6,2,2.1,1.9,3.4l-1.1,9.8c-0.1,1.3,0.6,2.9,1.7,3.7l8.2,5.4
	c1.1,0.7,1.7,2.3,1.4,3.6l-2.4,9.5c-0.3,1.3,0.2,3,1.2,3.9l7.4,6.5c1,0.8,1.4,2.5,0.9,3.8l-3.7,9.1c-0.5,1.2-0.2,3,0.7,4l6.5,7.4
	c0.9,1,1,2.7,0.4,3.8l-4.9,8.6c-0.6,1.1-0.6,2.9,0.1,4l5.4,8.2c0.7,1.1,0.7,2.8-0.1,3.9l-6,7.8c-0.8,1-1,2.8-0.4,4l4.3,8.9
	c0.6,1.2,0.3,2.9-0.6,3.8l-7,7c-0.9,0.9-1.3,2.7-0.9,3.9l3.1,9.4c0.4,1.2-0.1,2.9-1.1,3.7l-7.8,6c-1,0.8-1.7,2.5-1.4,3.8l1.8,9.7
	c0.2,1.3-0.5,2.9-1.6,3.5l-8.6,4.9c-1.1,0.7-2,2.2-1.9,3.5l0.5,9.8c0.1,1.3-0.9,2.8-2.1,3.2l-9.1,3.7c-1.2,0.5-2.3,1.9-2.4,3.2
	l-0.8,9.8c-0.1,1.3-1.2,2.6-2.5,2.9l-9.5,2.4c-1.3,0.3-2.5,1.6-2.8,2.9l-2.1,9.6c-0.3,1.3-1.6,2.4-2.9,2.6l-9.8,1.2
	c-1.3,0.1-2.7,1.3-3.2,2.5l-3.4,9.2c-0.4,1.2-1.9,2.2-3.2,2.2l-9.8-0.2c-1.3,0-2.9,0.9-3.5,2.1l-4.6,8.7c-0.6,1.2-2.2,1.9-3.4,1.7
	l-9.8-1.5c-1.3-0.2-2.9,0.5-3.7,1.6l-5.7,8c-0.8,1.1-2.4,1.6-3.7,1.3l-9.5-2.8c-1.2-0.4-3,0.1-3.9,1.1l-6.7,7.2
	c-0.9,1-2.6,1.3-3.8,0.8l-9-4c-1.2-0.5-3-0.3-4,0.5l-7.6,6.2c-1,0.8-2.8,0.9-3.9,0.3l-8.4-5.2c-1.1-0.7-2.9-0.7-4,0l-8.4,5.2
	c-1.1,0.7-2.8,0.6-3.8-0.3l-7.6-6.2c-1-0.8-2.8-1.1-4-0.5l-9,4c-1.2,0.5-2.9,0.2-3.8-0.8l-6.7-7.2c-0.9-0.9-2.6-1.4-3.9-1.1
	l-9.5,2.8c-1.2,0.4-2.9-0.2-3.6-1.3l-5.7-8c-0.8-1.1-2.4-1.8-3.7-1.6l-9.7,1.5c-1.3,0.2-2.9-0.6-3.5-1.7l-4.6-8.7
	c-0.6-1.2-2.2-2.1-3.5-2.1l-9.9,0.2c-1.3,0-2.7-1-3.2-2.2l-3.4-9.2c-0.4-1.2-1.9-2.4-3.2-2.5l-9.8-1.2c-1.3-0.2-2.6-1.3-2.9-2.6
	l-2.1-9.6c-0.3-1.3-1.5-2.6-2.8-2.9l-9.5-2.4c-1.3-0.3-2.4-1.7-2.5-2.9l-0.8-9.8c-0.1-1.3-1.2-2.8-2.4-3.2l-9.1-3.7
	c-1.2-0.5-2.1-2-2.1-3.2l0.5-9.8c0.1-1.3-0.8-2.9-1.9-3.5l-8.6-4.9c-1.1-0.6-1.9-2.2-1.6-3.5l1.8-9.7c0.2-1.3-0.4-3-1.5-3.8l-7.8-6
	c-1-0.8-1.6-2.4-1.1-3.7l3.1-9.4c0.4-1.2,0-3-0.9-3.9l-7-7c-0.9-0.9-1.2-2.6-0.6-3.8l4.3-8.9c0.6-1.2,0.4-3-0.4-4l-6-7.8
	c-0.8-1-0.9-2.8-0.1-3.9l5.4-8.2c0.7-1.1,0.8-2.9,0.1-4l-4.9-8.6c-0.6-1.1-0.5-2.9,0.4-3.8l6.5-7.4c0.9-1,1.2-2.8,0.7-4l-3.7-9.1
	c-0.5-1.2-0.1-2.9,0.9-3.8l7.4-6.5c1-0.9,1.5-2.6,1.2-3.9l-2.4-9.5c-0.3-1.3,0.3-2.9,1.4-3.6l8.2-5.4c1.1-0.7,1.9-2.4,1.7-3.7
	l-1.1-9.8c-0.1-1.3,0.7-2.8,1.9-3.4l8.9-4.3c1.2-0.6,2.1-2.1,2.2-3.4l0.2-9.8c0-1.3,1-2.7,2.3-3.1l9.4-3.1c1.2-0.4,2.4-1.8,2.6-3.1
	l1.5-9.7c0.2-1.3,1.4-2.5,2.7-2.8l9.7-1.8c1.3-0.2,2.6-1.4,3-2.7l2.8-9.5c0.4-1.2,1.7-2.3,3-2.4l9.9-0.5c1.3-0.1,2.8-1.1,3.3-2.3
	l4-9c0.5-1.2,2-2.1,3.3-2l9.8,0.8c1.3,0.1,2.9-0.7,3.6-1.8l5.2-8.4c0.7-1.1,2.3-1.8,3.6-1.5l9.6,2.1c1.3,0.3,3-0.3,3.8-1.3l6.2-7.6
	c0.8-1,2.5-1.5,3.7-1l9.3,3.4c1.2,0.5,3,0.1,4-0.8l7.2-6.7c1-0.9,2.7-1.1,3.8-0.5l8.7,4.6c1.2,0.6,3,0.5,4-0.3L-191.9,422.1z"/>
<path id="XMLID_186_" class="st15" d="M-38.4,606.4c0,83.6-67.9,151.4-151.6,151.4S-341.6,690-341.6,606.4
	c0-83.6,67.9-151.4,151.6-151.4S-38.4,522.7-38.4,606.4z"/>
<path id="XMLID_113_" class="st16" d="M-175.9,443.3c2.2,0.2,4-0.7,4.1-1.9c0.1-1.2-1.6-2.4-3.7-2.6c-2.2-0.2-4,0.6-4.1,1.9
	C-179.7,442-178.1,443.1-175.9,443.3z M-204.1,769.4c-2.2-0.2-4,0.7-4.1,1.9c-0.1,1.2,1.6,2.4,3.7,2.6c2.2,0.2,4-0.7,4.1-1.9
	C-200.3,770.7-201.9,769.6-204.1,769.4z M-218.3,767.6c-2.1-0.4-4.1,0.3-4.3,1.5c-0.2,1.2,1.4,2.5,3.5,2.9c2.1,0.4,4-0.3,4.3-1.5
	C-214.6,769.2-216.1,767.9-218.3,767.6z M-161.7,445.2c2.1,0.4,4-0.3,4.3-1.5c0.2-1.2-1.4-2.5-3.5-2.9c-2.1-0.4-4,0.3-4.2,1.5
	C-165.4,443.5-163.9,444.8-161.7,445.2z M-147.7,448.2c2.1,0.6,4.1,0,4.4-1.2c0.3-1.2-1.1-2.6-3.2-3.2c-2.1-0.6-4.1,0-4.4,1.2
	C-151.3,446.3-149.8,447.7-147.7,448.2z M-232.3,764.5c-2.1-0.6-4.1,0-4.4,1.2c-0.3,1.2,1.1,2.6,3.2,3.2c2.1,0.6,4.1,0,4.4-1.2
	C-228.7,766.5-230.2,765-232.3,764.5z M-134.1,452.5c2,0.7,4,0.4,4.5-0.8c0.4-1.2-0.9-2.7-2.9-3.5c-2-0.7-4-0.4-4.5,0.8
	S-136.1,451.8-134.1,452.5z M-245.9,760.2c-2-0.7-4-0.4-4.5,0.8c-0.4,1.2,0.9,2.7,2.9,3.5c2.1,0.7,4,0.4,4.5-0.8
	C-242.6,762.5-243.9,760.9-245.9,760.2z M-259.1,754.7c-2-0.9-4-0.8-4.5,0.4c-0.5,1.1,0.6,2.8,2.6,3.7c2,0.9,4,0.8,4.5-0.4
	C-256,757.3-257.2,755.7-259.1,754.7z M-120.9,458c2,0.9,4,0.8,4.5-0.4c0.5-1.1-0.7-2.8-2.6-3.7c-2-0.9-4-0.8-4.5,0.4
	C-124,455.4-122.8,457.1-120.9,458z M-108.2,464.6c1.9,1.1,3.9,1.1,4.5,0c0.6-1.1-0.4-2.8-2.3-3.9c-1.9-1.1-3.9-1.1-4.5,0
	C-111.1,461.7-110,463.5-108.2,464.6z M-271.8,748.2c-1.9-1.1-3.9-1.1-4.5,0c-0.6,1.1,0.4,2.8,2.3,3.9c1.9,1.1,3.9,1.1,4.5,0
	C-268.9,751-270,749.2-271.8,748.2z M-283.9,740.5c-1.8-1.2-3.8-1.4-4.5-0.4c-0.7,1,0.2,2.9,1.9,4.1s3.8,1.4,4.5,0.4
	C-281.3,743.6-282.1,741.7-283.9,740.5z M-96.1,472.2c1.8,1.2,3.8,1.4,4.5,0.4c0.7-1-0.2-2.9-1.9-4.1c-1.8-1.2-3.8-1.4-4.5-0.4
	C-98.7,469.1-97.9,471-96.1,472.2z M-80.3,481.7c0.8-1,0.1-2.9-1.6-4.2c-1.7-1.4-3.7-1.8-4.5-0.8c-0.8,1-0.1,2.8,1.6,4.2
	C-83,482.3-81.1,482.7-80.3,481.7z M-299.7,731c-0.8,1-0.1,2.9,1.6,4.2c1.7,1.4,3.7,1.8,4.5,0.8c0.8-1,0.1-2.9-1.6-4.2
	C-297,730.4-298.9,730.1-299.7,731z M-310.2,721c-0.9,0.9-0.3,2.8,1.2,4.4c1.5,1.5,3.5,2.1,4.4,1.2c0.9-0.9,0.3-2.8-1.2-4.4
	C-307.4,720.6-309.3,720.1-310.2,721z M-69.8,491.7c0.9-0.9,0.3-2.8-1.2-4.4c-1.5-1.5-3.5-2.1-4.4-1.2c-0.9,0.9-0.3,2.8,1.2,4.4
	C-72.6,492.1-70.7,492.6-69.8,491.7z M-319.8,710.1c-0.9,0.8-0.6,2.8,0.8,4.5c1.4,1.6,3.3,2.3,4.2,1.6c0.9-0.8,0.6-2.8-0.8-4.5
	C-316.9,710-318.8,709.3-319.8,710.1z M-60.2,502.6c1-0.8,0.6-2.8-0.8-4.4c-1.4-1.7-3.3-2.4-4.3-1.6c-0.9,0.8-0.6,2.8,0.8,4.5
	C-63.1,502.7-61.2,503.4-60.2,502.6z M-51.7,514.3c1-0.7,0.8-2.7-0.4-4.5c-1.2-1.8-3.1-2.6-4.1-1.9c-1,0.7-0.8,2.7,0.4,4.5
	C-54.5,514.2-52.7,515-51.7,514.3z M-328.3,698.4c-1,0.7-0.8,2.7,0.4,4.5c1.2,1.8,3.1,2.6,4.1,1.9c1-0.7,0.8-2.7-0.4-4.5
	C-325.5,698.6-327.3,697.7-328.3,698.4z M-335.9,686c-1.1,0.6-1.1,2.7,0,4.5c1.1,1.9,2.8,2.9,3.9,2.3c1.1-0.6,1.1-2.7,0-4.5
	C-333,686.4-334.8,685.4-335.9,686z M-44.1,526.7c1.1-0.6,1.1-2.6,0-4.5c-1.1-1.9-2.8-2.9-3.9-2.3c-1.1,0.6-1.1,2.6,0,4.5
	C-47,526.3-45.2,527.3-44.1,526.7z M-37.8,539.7c1.1-0.5,1.3-2.5,0.4-4.5c-0.9-2-2.6-3.1-3.7-2.6c-1.1,0.5-1.3,2.5-0.4,4.5
	C-40.5,539.1-38.9,540.2-37.8,539.7z M-342.2,673c-1.1,0.5-1.3,2.5-0.4,4.5c0.9,2,2.6,3.1,3.7,2.6c1.1-0.5,1.3-2.5,0.4-4.5
	C-339.5,673.7-341.1,672.5-342.2,673z M-347.5,659.5c-1.2,0.4-1.5,2.4-0.8,4.5c0.7,2,2.3,3.3,3.5,2.9c1.2-0.4,1.5-2.4,0.8-4.5
	C-344.8,660.4-346.3,659.1-347.5,659.5z M-32.5,553.2c1.2-0.4,1.5-2.4,0.8-4.5c-0.7-2-2.3-3.3-3.5-2.9c-1.2,0.4-1.5,2.4-0.8,4.5
	C-35.2,552.3-33.7,553.6-32.5,553.2z M-348.4,648.8c-0.6-2.1-2-3.5-3.2-3.2c-1.2,0.3-1.7,2.3-1.1,4.4c0.6,2.1,2,3.5,3.2,3.2
	C-348.3,652.9-347.8,650.9-348.4,648.8z M-31.6,563.9c0.6,2.1,2,3.5,3.2,3.2c1.2-0.3,1.7-2.3,1.1-4.4c-0.6-2.1-2-3.5-3.2-3.2
	C-31.7,559.8-32.2,561.8-31.6,563.9z M-351.5,634.9c-0.4-2.1-1.7-3.7-2.9-3.5c-1.2,0.2-1.9,2.1-1.5,4.3c0.4,2.1,1.7,3.7,2.9,3.5
	C-351.8,638.9-351.1,637-351.5,634.9z M-28.5,577.8c0.4,2.1,1.7,3.7,2.9,3.5c1.2-0.2,1.9-2.1,1.5-4.2c-0.4-2.1-1.7-3.7-2.9-3.5
	C-28.2,573.8-28.9,575.7-28.5,577.8z M-353.3,620.7c-0.2-2.2-1.3-3.8-2.6-3.7c-1.2,0.1-2.1,1.9-1.9,4.1c0.2,2.2,1.3,3.8,2.6,3.7
	C-354,624.7-353.1,622.9-353.3,620.7z M-26.7,592c0.2,2.2,1.3,3.8,2.6,3.7c1.2-0.1,2.1-1.9,1.9-4.1c-0.2-2.2-1.3-3.8-2.6-3.7
	C-26,588-26.9,589.8-26.7,592z M-356.2,610.4c1.2,0,2.2-1.8,2.2-3.9c0-2.2-1-3.9-2.2-3.9s-2.2,1.8-2.2,3.9
	C-358.5,608.6-357.5,610.4-356.2,610.4z M-23.8,602.3c-1.2,0-2.2,1.8-2.2,3.9c0,2.2,1,3.9,2.2,3.9c1.2,0,2.2-1.8,2.2-3.9
	C-21.5,604.1-22.5,602.3-23.8,602.3z M-355.9,595.9c1.2,0.1,2.4-1.6,2.6-3.7c0.2-2.2-0.7-4-1.9-4.1s-2.4,1.6-2.6,3.7
	C-358,594-357.2,595.8-355.9,595.9z M-24.1,616.8c-1.2-0.1-2.4,1.5-2.6,3.7c-0.2,2.2,0.7,4,1.9,4.1c1.2,0.1,2.4-1.6,2.6-3.7
	C-22,618.8-22.8,616.9-24.1,616.8z M-25.6,631.2c-1.2-0.2-2.5,1.3-2.9,3.5c-0.4,2.1,0.3,4,1.5,4.3c1.2,0.2,2.5-1.3,2.9-3.5
	C-23.7,633.3-24.4,631.4-25.6,631.2z M-354.4,581.5c1.2,0.2,2.5-1.3,2.9-3.5c0.4-2.1-0.3-4-1.5-4.3c-1.2-0.2-2.5,1.3-2.9,3.5
	C-356.3,579.4-355.6,581.3-354.4,581.5z M-351.6,567.3c1.2,0.3,2.6-1.1,3.2-3.2c0.6-2.1,0-4-1.2-4.4c-1.2-0.3-2.6,1.1-3.2,3.2
	C-353.3,565-352.8,567-351.6,567.3z M-28.4,645.4c-1.2-0.3-2.6,1.1-3.2,3.2c-0.5,2.1,0,4.1,1.2,4.4c1.2,0.3,2.6-1.1,3.2-3.2
	C-26.7,647.7-27.2,645.7-28.4,645.4z M-32.4,659.3c-1.2-0.4-2.7,0.9-3.5,2.9c-0.7,2-0.4,4,0.8,4.4c1.2,0.4,2.7-0.9,3.5-2.9
	C-30.9,661.7-31.3,659.8-32.4,659.3z M-347.6,553.4c1.2,0.4,2.7-0.9,3.5-2.9c0.7-2,0.4-4-0.8-4.4c-1.2-0.4-2.7,0.9-3.5,2.9
	C-349.1,551-348.7,553-347.6,553.4z M-37.7,672.8c-1.1-0.5-2.8,0.6-3.7,2.6c-0.9,2-0.8,4,0.4,4.5c1.1,0.5,2.8-0.6,3.7-2.6
	C-36.4,675.4-36.5,673.4-37.7,672.8z M-342.3,539.9c1.1,0.5,2.8-0.7,3.7-2.6c0.9-2,0.8-4-0.4-4.5c-1.1-0.5-2.8,0.6-3.7,2.6
	C-343.6,537.3-343.5,539.4-342.3,539.9z M-332,524.6c1.1-1.9,1.1-3.9,0-4.5c-1.1-0.6-2.8,0.4-3.9,2.3c-1.1,1.9-1.1,3.9,0,4.5
	C-334.9,527.5-333.1,526.5-332,524.6z M-48,688.1c-1.1,1.9-1.1,3.9,0,4.5c1.1,0.6,2.8-0.4,3.9-2.3c1.1-1.9,1.1-3.9,0-4.5
	C-45.1,685.2-46.9,686.2-48,688.1z M-55.6,700.2c-1.2,1.8-1.4,3.8-0.4,4.5c1,0.7,2.8-0.2,4.1-1.9c1.2-1.8,1.4-3.8,0.4-4.5
	C-52.6,697.5-54.4,698.4-55.6,700.2z M-324.4,512.5c1.2-1.8,1.4-3.8,0.4-4.5c-1-0.7-2.9,0.1-4.1,1.9c-1.2,1.8-1.4,3.8-0.4,4.5
	C-327.4,515.2-325.6,514.3-324.4,512.5z M-64.4,711.5c-1.4,1.7-1.8,3.6-0.8,4.4c0.9,0.8,2.8,0.1,4.2-1.6c1.4-1.7,1.8-3.6,0.8-4.4
	C-61.1,709.1-63,709.8-64.4,711.5z M-315.6,501.2c1.4-1.7,1.8-3.7,0.8-4.5c-1-0.8-2.9-0.1-4.2,1.6c-1.4,1.7-1.8,3.6-0.8,4.4
	C-318.9,503.6-317,502.9-315.6,501.2z M-74,722c-1.5,1.5-2.1,3.5-1.2,4.4c0.9,0.9,2.8,0.4,4.4-1.2c1.5-1.5,2.1-3.5,1.2-4.4
	C-70.5,720-72.5,720.5-74,722z M-306,490.7c1.5-1.5,2.1-3.5,1.2-4.4s-2.8-0.3-4.4,1.2c-1.5,1.5-2.1,3.5-1.2,4.4
	C-309.5,492.7-307.5,492.2-306,490.7z M-84.6,731.7c-1.7,1.4-2.4,3.3-1.6,4.2c0.8,0.9,2.8,0.6,4.5-0.8c1.7-1.4,2.4-3.3,1.6-4.2
	C-80.9,729.9-82.9,730.3-84.6,731.7z M-295.4,481c1.7-1.4,2.4-3.3,1.6-4.2c-0.8-1-2.8-0.6-4.5,0.8c-1.7,1.4-2.4,3.3-1.6,4.2
	C-299.1,482.8-297.1,482.4-295.4,481z M-95.9,740.4c-1.8,1.2-2.7,3.1-1.9,4.1c0.7,1,2.7,0.8,4.5-0.4c1.8-1.2,2.6-3.1,1.9-4.1
	C-92.1,739-94.1,739.1-95.9,740.4z M-284.1,472.3c1.8-1.2,2.6-3.1,1.9-4.1c-0.7-1-2.7-0.8-4.5,0.4s-2.6,3.1-1.9,4.1
	C-287.9,473.8-285.9,473.6-284.1,472.3z M-108,748.1c-1.9,1.1-2.9,2.8-2.3,3.9c0.6,1.1,2.7,1.1,4.5,0c1.9-1.1,2.9-2.8,2.3-3.9
	C-104.1,747-106.1,747-108,748.1z M-272,464.6c1.9-1.1,2.9-2.8,2.3-3.9c-0.6-1.1-2.6-1.1-4.5,0c-1.9,1.1-2.9,2.8-2.3,3.9
	C-275.9,465.7-273.9,465.7-272,464.6z M-120.7,754.7c-2,0.9-3.1,2.6-2.6,3.7c0.5,1.1,2.5,1.3,4.5,0.4s3.1-2.6,2.6-3.7
	C-116.7,753.9-118.7,753.7-120.7,754.7z M-259.3,458.1c2-0.9,3.1-2.6,2.6-3.7c-0.5-1.1-2.5-1.3-4.5-0.4c-2,0.9-3.1,2.6-2.6,3.7
	C-263.3,458.8-261.3,459-259.3,458.1z M-133.9,760.1c-2,0.8-3.4,2.3-2.9,3.4c0.4,1.2,2.4,1.5,4.5,0.8c2-0.7,3.4-2.3,2.9-3.5
	C-129.9,759.7-131.9,759.4-133.9,760.1z M-246.1,452.6c2-0.8,3.4-2.3,2.9-3.4c-0.4-1.2-2.4-1.5-4.5-0.8c-2,0.7-3.4,2.3-2.9,3.4
	C-250.1,453-248.1,453.3-246.1,452.6z M-232.4,448.3c2.1-0.6,3.5-2,3.2-3.2c-0.3-1.2-2.3-1.7-4.4-1.1c-2.1,0.6-3.5,2-3.2,3.2
	C-236.5,448.3-234.6,448.9-232.4,448.3z M-147.5,764.4c-2.1,0.6-3.6,2-3.2,3.2c0.3,1.2,2.3,1.7,4.4,1.2c2.1-0.6,3.5-2,3.2-3.2
	C-143.5,764.4-145.4,763.9-147.5,764.4z M-161.5,767.5c-2.1,0.4-3.7,1.7-3.5,2.9c0.2,1.2,2.1,1.9,4.3,1.5c2.1-0.4,3.7-1.7,3.5-2.9
	C-157.5,767.8-159.4,767.1-161.5,767.5z M-218.5,445.2c2.1-0.4,3.7-1.7,3.5-2.9s-2.1-1.9-4.3-1.5c-2.1,0.4-3.7,1.7-3.5,2.9
	C-222.5,444.9-220.6,445.6-218.5,445.2z M-204.3,443.3c2.2-0.2,3.8-1.3,3.7-2.6c-0.1-1.2-2-2.1-4.1-1.9c-2.2,0.2-3.8,1.3-3.7,2.6
	C-208.3,442.7-206.5,443.5-204.3,443.3z M-175.7,769.4c-2.2,0.2-3.8,1.3-3.7,2.6c0.1,1.2,2,2.1,4.1,1.9s3.8-1.3,3.7-2.6
	C-171.7,770-173.5,769.2-175.7,769.4z M-190,438.2c-2.2,0-3.9,1-3.9,2.2c0,1.2,1.8,2.2,3.9,2.2c2.2,0,3.9-1,3.9-2.2
	C-186.1,439.2-187.8,438.2-190,438.2z M-190,770c-2.2,0-3.9,1-3.9,2.2s1.8,2.2,3.9,2.2c2.2,0,3.9-1,3.9-2.2S-187.8,770-190,770z"/>
<rect id="XMLID_112_" x="-394" y="421.5" class="st17" width="408" height="369.7"/>
<g id="XMLID_55_">
	<defs>
		<path id="XMLID_1_" d="M-190.8,758c142.7,0,150.7-134,151.3-148c0.7-14,65.3-197.3,65.3-197.3s-259.3-58.4-271.3-58
			c-247.3,8-108,425.3-108,425.3l44.7-74.7C-308.8,705.4-265.5,758-190.8,758z"/>
	</defs>
	<clipPath id="XMLID_4_">
		<use xlink:href="#XMLID_1_"  style="overflow:visible;"/>
	</clipPath>
	<g id="XMLID_54_" class="st18">
		<path id="XMLID_22_" class="st19" d="M-184.8,523.4c0,0,7-8.8-1-21.1c-5.3-8.1-12-10-16.4-8.2c-4.4,1.7-5.7,9.6-5.7,9.6l7.2,19.6
			L-184.8,523.4z"/>
		<path id="XMLID_16_" class="st20" d="M-282.8,475c0,0-14.7-3.4-21.8,0c-12.6,6.1-13.9,28.3-13.9,28.3s7.4-5.5,10-5.7
			c12.2-0.9,14.8,0.4,14.8,0.4s-19.7,7.3-23.1,10c-13.1,10.5-12.2,31.8-12.2,31.8l-0.9,9.6c0,0,22.7-17.9,25.3-20.5
			c2.6-2.6,8.7-7.1,8.7-7.1l-18.3,10.6c0,0-22.7,14.2-27.4,20.5c-8.3,10.9-4.8,25.3-8.3,30.9c-1.5,2.4,13.9-17,19.2-16.1
			c5.2,0.9,12.6,2.6,12.6,2.6l-3.9-5.2c0,0-10,4.8-11.8,12.6c-1.7,7.8,0.9,22.2-4.4,24.8c-5.2,2.6-10.9,7.4-12.2,12.6
			c-1.3,5.2-2.2,14.4-2.2,14.4s8.7-12.6,11.3-13.1c2.6-0.4,14.8,0.4,17.4-1.7c2.6-2.2,11.8-10.9,11.8-10.9s-22.2,7.4-24.8,16.6
			c-2.6,9.1-3.9,19.2-3.5,25.7c0.4,6.5,0.9,13.5,0.9,13.5s3.5-24.8,8.7-27.4c5.2-2.6,10.5-3.9,10.5-3.9l-6.4-4.1
			c0,0-2.3,21.1,3,28.1c5.2,7,6.1-1.7,2.6,14.8c-3.5,16.6-6.5,23.1-5.7,29.2s3.5,11.3,3.5,11.3s0-12.6,6.1-18.3s13.5-5.2,13.5-5.2
			s-12.6,3.9-12.6,18.7s3.5,35.7,3.5,35.7l34.4-40.5c0,0-16.1-60.6-11.3-105.9c4.8-45.3,22.2-85.4,22.2-85.4l-5.7-26.6L-282.8,475z"
			/>
		<path id="XMLID_15_" class="st21" d="M-312.3,740.8c0,0,1.4-21.1,12.3-33.4c5.8-6.5,12.9-10.2,12.9-10.2s-14.1-58.1-13.6-111
			c0.5-59,22.5-84.4,22.5-84.4s-6.8-10.9-4.8-16.3c2-5.4,10.2-15.4,10.2-23s-2.7-26.7,0-28s20.4,14.3,23.1,19.7
			c2.7,5.4,3.4,12.9,3.4,12.9s8.2-6.8,9.5-15.7s1.4-21.8,3.4-21.8c2,0,9.5,8.2,9.5,8.2l6.8,14.3c0,0,15.3,24.4,17.9,29.6
			c2.6,5.1-13.1,12.6-8.3,23.5s16.3,19.7,27.2,17.7c10.9-2,32-21.8,64-10.9c8.9,3,17,6.1,22.5,11.2c4.1,3.8,10.9-6.1,22.2,8.7
			c10.8,14.1-1.9,20.2-1.9,20.2s2,15,1.4,19.1c-0.7,4.1-0.4,8.2,1.4,13c0.8,2.3,5.4,4,2,10.8c0,0-6.7,7.5-9.1,8.2
			c-2.4,0.7-6.5,1.4-10.6,5.4c-2.6,2.6-6.9,14.4-17.2,19.1s-22.4,0.4-27.9,1.7c-5.4,1.4-20.9,6.5-33.2-3.2
			c-9.8-7.8-11.6-33.4-17.7-37.4c-11.3-7.5-23.4,1.2-16.3,18.9c11.9,29.6,57.8,45.1,63.2,53.9c5.4,8.8,11.6,19.1,11.6,19.1
			s28.6,1.4,44.2,16.3c15.7,15,37.4,42.9,37.4,42.9s-25.2,48.3-136.8,59.2S-312.3,740.8-312.3,740.8z"/>
		<path id="XMLID_17_" class="st22" d="M-272.5,435.3c0,0-0.4,8.7,0.4,11.3c0.9,2.6,3,7.4,3.5,10.9c0.4,3.5-0.4,25.5,3.3,34.7
			c3.7,9.3,8.1,11,8.1,11s11.8-12.2,12.6-17.9c0.9-5.7-2.2-23.1-4.4-28.8c-2.2-5.7-11.8-17-15.2-18.7
			C-267.7,436.2-272.5,435.3-272.5,435.3z"/>
		<path id="XMLID_19_" class="st22" d="M-231.8,431.8l2.2,7c0,0-1.3,8.3-1.3,10.5c0,2.2,0.4,7.8,0.4,7.8l15.1-1.6l-8.5-18
			L-231.8,431.8z"/>
		<path id="XMLID_14_" class="st20" d="M-130.3,492c0,0-5.2,5.7-15.7,4.8s-23.1-13.9-29.6-13.5c-6.5,0.4-13.1,3-13.1,3l-5.2-7.8
			c0,0,8.3,13.5,16.1,13.5s3-0.4,3-0.4s-2.2,3.5-7.4,3c-5.2-0.4-8.7-4.8-15.7-4.8c-7,0-10.9,10.5-27,5.7
			c-16.1-4.8-20.5-25.7-20.5-25.7s8.7-12.9,22.7-20.5c16.1-8.7,29.6-8.7,29.6-8.7l-6.5,6.1c0,0,13.5-4.9,25.3-3.4
			c17,2.2,20.5,9.3,20.5,9.3s-3-1.1-8.7-1.1c-4.3,0-2.6,0.9-2.6,0.9s11.3,3,16.6,14.4c4.1,8.9,3,20.5,8.7,23.5S-130.3,492-130.3,492
			z"/>
		<path id="XMLID_20_" class="st19" d="M-205.5,535.5c0,0,4.2-40.1-16.3-40.5s-19.1,14.7-17.8,19.9c1.3,5.2,3.8,11.4,7.7,15.8
			s3.9,4.4,3.9,4.4s3-3.4,10-3C-209.8,532.4-205.5,535.5-205.5,535.5z"/>
		<path id="XMLID_23_" class="st23" d="M-100.7,615.3c0,0-10,7-17.9,7.4s-18.7,3.9-28.8-1.3c-10-5.2-17-18.7-21.8-26.1
			s-10.9-12.6-10.9-12.6s5.7,2.2,19.2,12.6s14,16.6,23.5,19.2C-111.6,621.4-100.7,615.3-100.7,615.3z"/>
		<path id="XMLID_21_" class="st24" d="M-146.8,542.9c0,0-3,8.3,0.9,12.6c3.9,4.4,8.3,8.3,8.3,8.3s0-10.9-1.7-13.9
			C-141.2,546.9-146.8,542.9-146.8,542.9z"/>
		<path id="XMLID_25_" class="st13" d="M-98,520.2c0,0,12.4,8.8,16.7,16.7c4.2,7.8,8.2,14.1,8.8,20.9"/>
		<path id="XMLID_24_" class="st13" d="M-42.2,561.3"/>
		<path id="XMLID_26_" d="M-223.5,533.8c0,0,4.8-1.7,4.8-5.7c0-3.9-2.4-8.7-6.8-8.3c-4.1,0.4-5.6,5.2-5.9,7.2
			c-0.3,2,1.3,4.1,1.3,4.1l2.8,3.5L-223.5,533.8z"/>
		<path id="XMLID_27_" d="M-192.2,521.1c0,0,2.9-2.9,2.9-6.5c0-3.6-3-8.1-7.1-6.8c-3.8,1.2-4.9,6-3.3,8.3
			C-197.9,518.4-192.2,521.1-192.2,521.1z"/>
		<path id="XMLID_28_" class="st13" d="M-236.6,541.1c0,0,4.4-3.8,8.7-6c4.4-2.2,7.3-2.8,7.3-2.8"/>
		<path id="XMLID_29_" class="st13" d="M-241.8,535.2c0,0,4.6-2.3,6.9-1.6c2.3,0.7,6.2,0.3,6.2,0.3"/>
		<path id="XMLID_30_" class="st13" d="M-190.2,586.8c-4.2-1.3-8.2-0.3-12.7,1s-29.7,15.7-51,3.6c-21.2-12.1-17.6-46.1-17.6-46.1
			s-3.9,26.8,18.3,66.3c22.2,39.5,38.2,52.9,41.8,60.8c3.6,7.8,5.2,16,5.2,16"/>
		<path id="XMLID_32_" class="st13" d="M-173.9,577.3c0,0-7.2,0.7-10.5,3.9c-3.3,3.3-3.3,3.3-3.3,3.3l0,0"/>
		<path id="XMLID_33_" class="st13" d="M-172.2,520.2c0,0-5.2,1.6-8.8,4.9c-3.6,3.3-5.6,10.5-5.6,10.5"/>
		<path id="XMLID_34_" class="st13" d="M-136.3,535.5c-0.7-1-7.8-7.5-13.1-5.9c-5.2,1.6-12.1,16-7.5,25.5s9.5,15.4,11.4,15.4"/>
		<ellipse id="XMLID_31_" class="st15" cx="-224.2" cy="529" rx="2.2" ry="3.3"/>
		<ellipse id="XMLID_35_" class="st15" cx="-193.5" cy="515.9" rx="2.2" ry="3.3"/>
		<path id="XMLID_50_" class="st20" d="M-279.7,476.3c0,0-14.8-6.1-21.3-3.9c-6.5,2.2-16.6,8.3-18.7,18.3s-2.2,17-2.2,17
			s3.5-9.6,13.5-10c10-0.4,15.7,4.4,15.7,4.4"/>
		<path id="XMLID_49_" class="st20" d="M-290.6,512.9c0,0-17.9,0.9-24.4,3c-6.5,2.2-18.3,11.8-20.5,21.8c-2.2,10-3,21.3-3,21.3
			s12.2-10,22.2-10.5c10-0.4,14.8,3,14.8,3"/>
		<path id="XMLID_51_" class="st20" d="M-312.4,561.2c0,0-3-2.2-9.6,0c-6.5,2.2-16.6,8.3-18.7,18.3c-2.2,10-2.2,17-2.2,17
			s3.5-9.6,13.5-10c10-0.4,15.2-3.9,15.2-3.9"/>
		<path id="XMLID_52_" class="st20" d="M-313.3,600c0,0-7.4,3-13.9,5.2c-6.5,2.2-12,4.8-14.2,14.8c-2.2,10-5,14.4-5,14.4
			s2.2-11.8,12.2-12.2c10-0.4,6.5,14.8,6.5,14.8"/>
		<path id="XMLID_53_" class="st20" d="M-318.9,621.4c0,0,3.9-0.9-2.6,1.3c-6.5,2.2-6.5,29.8-8.7,39.9c-2.2,10-2.2,17-2.2,17
			s3.5-9.6,13.5-10s12.6-2.4,12.6-2.4"/>
	</g>
</g>
</svg>
