<?xml version="1.0" encoding="utf-8"?>
<!-- Generator: Adobe Illustrator 19.0.0, SVG Export Plug-In . SVG Version: 6.00 Build 0)  -->
<!DOCTYPE svg PUBLIC "-//W3C//DTD SVG 1.1//EN" "http://www.w3.org/Graphics/SVG/1.1/DTD/svg11.dtd">
<svg version="1.1" id="Layer_1" xmlns="http://www.w3.org/2000/svg" xmlns:xlink="http://www.w3.org/1999/xlink" x="0px" y="0px"
	 viewBox="0 0 1212 277.4" style="enable-background:new 0 0 1212 277.4;" xml:space="preserve">
<style type="text/css">
	.st0{fill-rule:evenodd;clip-rule:evenodd;fill:#82000F;}
	.st1{fill-rule:evenodd;clip-rule:evenodd;fill:#A52336;}
	.st2{fill-rule:evenodd;clip-rule:evenodd;fill:#630210;}
	.st3{fill:#FFFFFF;}
	.st4{font-family:'Charter-Roman';}
	.st5{font-size:77px;}
</style>
<g id="XMLID_13_">
	<g id="XMLID_19_">
		<path id="XMLID_23_" class="st0" d="M605.9,0C765.9,0,890,9.2,964,22.1s136.7,27.8,146,47.4c2.7,5.6,2,8.1,2,8.1l-24,125.8
			c0,0,2-6.4-14-17.7c-16-11.3-260-43.5-468-43.5"/>
		<path id="XMLID_22_" class="st1" d="M1112,75.9c0,0,0,7.3-7,12.1c-7,4.8-18,3.2-18,3.2l-27,127.4c0,0,7,1.6,14-2.4
			s14-13.7,14-13.7L1112,75.9z"/>
		<path id="XMLID_21_" class="st1" d="M1087,92c0,0-6.7-0.5-13.7,1.6c-6.6,2-9,8.1-9,8.1l-25.3,126c0,0,2.6-5.6,9.7-7.5
			c8-2.1,12-1.6,12-1.6L1087,92z"/>
		<path id="XMLID_20_" class="st2" d="M1064.6,102c0,0-2.3,8.3,4.7,13.4s23.7,16.1,74.7,15c51-1.1,68-11.3,68-11.3
			s-15.7,33.9-29,49.4s-15.7,15.9-15.7,15.9s7.4,14,19.7,24.2c11.7,9.7,21.3,37.4,21.3,37.4s-29.2,9.4-80,12.8
			c-44,3-77.6-18-85.3-23.1c-5.3-3.5-3.7-9.1-3.7-9.1L1064.6,102z"/>
	</g>
	<g id="XMLID_14_">
		<path id="XMLID_18_" class="st0" d="M617.9,0C457.9,0,322,9.2,248,22.1S111.3,49.9,102,69.5c-2.7,5.6-2,8.1-2,8.1l24,125.8
			c0,0-2-6.4,14-17.7c16-11.3,260-43.5,468-43.5"/>
		<path id="XMLID_17_" class="st1" d="M100,75.9c0,0,0,7.3,7,12.1c7,4.8,18,3.2,18,3.2l27,127.4c0,0-7,1.6-14-2.4s-14-13.7-14-13.7
			L100,75.9z"/>
		<path id="XMLID_16_" class="st1" d="M125,92c0,0,6.7-0.5,13.7,1.6c6.6,2,9,8.1,9,8.1l25.3,126c0,0-2.6-5.6-9.7-7.5
			c-8-2.1-12-1.6-12-1.6L125,92z"/>
		<path id="XMLID_15_" class="st2" d="M147.3,102c0,0,2.3,8.3-4.7,13.4s-23.7,16.1-74.7,15c-51-1.1-68-11.3-68-11.3
			s15.7,33.9,29,49.4s15.7,15.9,15.7,15.9s-7.4,14-19.7,24.2C13.3,218.3,3.7,246,3.7,246s29.2,9.4,80,12.8c44,3,77.6-18,85.3-23.1
			c5.3-3.5,3.7-9.1,3.7-9.1L147.3,102z"/>
	</g>
</g>
<path id="XMLID_6_" class="st0" d="M1191,89.3"/>
<path id="XMLID_3_" class="st0" d="M325,89.3c0,0,66,0,438,0"/>
<g id="XMLID_56_">
	<path id="XMLID_57_" class="st3" d="M207.7,61l38.6-5.3c9.7-1.3,17.4-0.5,23,2.4c5.6,3,8.8,8,9.8,15.1c0.8,5.8-0.4,10.8-3.5,15
		c-3.2,4.2-8.2,7.4-15.2,9.7c3.2,0.3,6,0.9,8.4,1.9c2.3,1,4.4,2.3,6,4.1c2.1,2.3,4.5,6.3,7.1,11.9c1.2,2.6,2.2,4.6,2.9,5.8
		c1.7,3.2,3.8,5.3,6.1,6.3c2.3,1,5.7,1.2,10.1,0.6l1.6-0.2l0.8,6.1c-2.3,0.7-4.5,1.2-6.6,1.7c-2.1,0.5-4.1,0.8-5.9,1.1
		c-2.6,0.4-5.1,0.4-7.5,0c-2.4-0.4-4.5-1.1-6.2-2.1c-4.2-2.4-7.9-6.9-11.1-13.4c-0.4-0.9-0.8-1.6-1-2.1c-3.4-6.9-6.6-11.2-9.7-13.1
		c-3.1-1.8-7.3-2.4-12.8-1.6l-2.2,0.3l4,28.5l2.3,1.7l7.8-0.4l0.9,6.2l-35.8,5l-0.9-6.2l7.4-1.7l1.8-2.3l-9.4-67.6l-2.3-1.5
		l-7.6,0.4L207.7,61z M234.7,64.7l4.6,33.1c0.5,0,1.1-0.1,1.8-0.2c0.6-0.1,1.6-0.2,2.8-0.4c6.9-1,11.7-3,14.6-6.3
		c2.9-3.2,3.9-7.7,3.1-13.5c-0.7-5.3-2.9-9.1-6.5-11.4c-3.6-2.3-8.4-3.1-14.5-2.2L234.7,64.7z"/>
	<path id="XMLID_60_" class="st3" d="M352.5,122.6c-4,3.4-7.7,5.9-11.1,7.5c-3.4,1.7-6.7,2.7-9.9,3c-4.9,0.5-9-0.7-12.5-3.5
		c-3.4-2.8-5.3-6.6-5.8-11.5c-0.6-6,1.3-10.8,5.5-14.5c4.3-3.7,14.6-8.2,30.9-13.6l-0.4-3.8c-0.4-4.6-1.7-7.9-3.9-9.8
		c-2.2-1.9-5.3-2.7-9.5-2.3c-0.9,0.1-1.9,0.2-2.8,0.5c-1,0.2-2,0.5-3.2,0.9l1.1,11.9l-11.8,1.1c-2,0.2-3.6,0-4.6-0.7
		c-1-0.7-1.6-1.8-1.7-3.4c-0.4-4,2-7.7,7-11.2c5.1-3.5,11.5-5.6,19.3-6.3c8.7-0.8,15.1,0.2,18.9,3.3c3.9,3,6.2,8.7,7,17l3.2,33
		l1.9,1.6l6.8,0l0.5,5.6l-22.7,2.2L352.5,122.6z M352,117.3l-2-20.8c-8.2,2.7-13.7,5.3-16.6,7.7c-2.9,2.5-4.1,5.6-3.7,9.4
		c0.3,2.9,1.4,5.2,3.2,6.8c1.9,1.6,4.2,2.2,7.2,1.9c1.6-0.2,3.4-0.7,5.4-1.5C347.5,120,349.7,118.9,352,117.3z"/>
	<path id="XMLID_63_" class="st3" d="M446.9,117.1c-4.1,2.6-8,4.5-11.9,5.9c-3.9,1.4-7.8,2.2-11.8,2.4c-9.1,0.6-16.7-1.8-22.7-7.2
		c-6-5.4-9.3-12.8-9.9-22.2c-0.6-9.7,1.9-17.8,7.7-24.4c5.8-6.6,13.5-10.2,23.1-10.8c6.3-0.4,11.4,0.6,15.5,2.9
		c4.1,2.3,6.2,5.6,6.5,9.6c0.2,2.5-0.6,4.7-2.2,6.4c-1.6,1.8-3.8,2.7-6.4,2.9c-1.5,0.1-2.8,0-4.1-0.3c-1.3-0.3-2.5-0.9-3.6-1.6
		l-0.9-13.5c-0.7-0.1-1.3-0.2-1.9-0.2c-0.5,0-1,0-1.4,0c-4.7,0.3-8.6,2.8-11.5,7.5s-4.1,10.5-3.7,17.4c0.5,7.6,2.6,13.4,6.5,17.6
		c3.8,4.1,8.8,6,14.8,5.6c2.7-0.2,5.6-0.9,8.5-2c2.9-1.2,5.9-2.8,8.8-4.9L446.9,117.1z"/>
	<path id="XMLID_65_" class="st3" d="M520.5,104.1l0.4,9.5c-4.3,2.7-8.6,4.7-13,6.1c-4.4,1.4-8.8,2.2-13.3,2.4
		c-9.5,0.4-17.3-2.3-23.3-8c-6-5.7-9.2-13.3-9.5-23c-0.4-9.7,2.3-17.7,8-24.1c5.7-6.4,13.2-9.7,22.4-10.1c8.4-0.3,15.1,2,19.9,6.9
		s7.5,11.9,7.8,21.1l0.1,2.4L478,88.9l0,0.4c0.3,7.3,2.3,12.9,6.1,17c3.8,4,8.9,5.9,15.4,5.7c3.4-0.1,6.8-0.8,10.3-2.1
		C513.2,108.5,516.8,106.6,520.5,104.1z M502.8,81.2l-0.1-1.4c-0.2-5.2-1.3-9.2-3.3-11.9c-2-2.7-4.8-4-8.4-3.8c-3.9,0.1-7,1.8-9.3,5
		c-2.3,3.2-3.4,7.5-3.4,13L502.8,81.2z"/>
	<path id="XMLID_68_" class="st3" d="M589.6,78.1l-6.4,0l0-3.8l7.3-4.2l5.2-10.3l6.2,0l0,12.3l14.6,0l0,5.9l-14.6,0l0,24.7
		c0,3.7,0.6,6.2,1.8,7.6c1.2,1.4,3.3,2,6.4,2c1.2,0,2.4-0.1,3.4-0.2c1-0.1,2.1-0.3,3-0.5l0,4.7c-2.8,1-5.5,1.8-8.1,2.3
		s-4.9,0.8-7,0.8c-1.7,0-3.3-0.2-4.6-0.5c-1.3-0.4-2.5-0.9-3.6-1.6c-1.3-0.9-2.2-2-2.8-3.3c-0.5-1.3-0.8-3.7-0.8-7.2L589.6,78.1z"/>
	<path id="XMLID_70_" class="st3" d="M654,70c7.6,0.1,13.6,2.5,18,7.2c4.4,4.7,6.6,10.9,6.4,18.7c-0.1,7.4-2.5,13.3-7.3,17.8
		c-4.7,4.4-11,6.6-18.7,6.5c-7.4-0.1-13.4-2.5-17.9-7.1c-4.5-4.6-6.7-10.7-6.6-18.1c0.1-7.6,2.5-13.7,7.3-18.3
		C640.1,72.1,646.3,69.9,654,70z M653.6,75.3c-3.6-0.1-6.5,1.6-8.5,5s-3.2,8.2-3.3,14.5c-0.1,6.3,0.8,11.2,2.8,14.8
		c2,3.5,4.7,5.3,8.3,5.4c3.7,0.1,6.6-1.6,8.7-5c2.1-3.4,3.2-8.2,3.3-14.6c0.1-6.3-0.9-11.2-2.8-14.7C660,77.2,657.2,75.4,653.6,75.3
		z"/>
	<path id="XMLID_73_" class="st3" d="M763.8,122.9l-15.6-79l-7.9-2.3l0.4-6.2l33.5,2.2l-0.4,6.2l-8,0.2l-1.2,1.7l10.9,53.9
		l22.4-60.6l12.8,0.8l14.8,64.5l16.9-52.8l-1.4-1.8l-8.3-2.1l0.4-6.2l27.8,1.8l-0.4,6.2l-8.2,1.3l-24.6,76.4l-12.4-0.8l-15.5-66.7
		l-23.7,64.2L763.8,122.9z"/>
	<path id="XMLID_75_" class="st3" d="M888.6,69.1l6.2,0.6l-5.7,55l1.7,2.1l7.1,1.2l-0.6,5.7l-33.4-3.5l0.6-5.7l7,0.2l2-1.7l4.6-44
		l-8.4-0.9l0.5-5.1L888.6,69.1z M890.3,40c2.8,0.3,5,1.4,6.6,3.4c1.6,1.9,2.3,4.3,2,7c-0.3,2.8-1.4,5-3.4,6.7c-2,1.6-4.3,2.3-7,2
		c-2.7-0.3-4.8-1.4-6.4-3.4c-1.6-2-2.3-4.3-2-7c0.3-2.7,1.4-4.9,3.4-6.6C885.4,40.4,887.7,39.7,890.3,40z"/>
	<path id="XMLID_78_" class="st3" d="M911.7,135.3l0.8-5.7l6.6,0.5l2.1-1.7l6.4-43.7l-8.7-1.3l0.7-5.1l19.1-3.3l6.1,0.9l-1.1,7.5
		c5.2-2,9.7-3.3,13.4-4c3.7-0.7,6.8-0.9,9.4-0.5c5.8,0.8,9.8,3.2,12.2,7.1c2.3,3.9,3,9.4,2,16.5l-5,34l1.4,2.2l6.6,1.5l-0.8,5.7
		l-31-4.5l0.8-5.7l5.5,0.3l2-1.7l4.4-30.3c0.7-4.7,0.3-8.3-1.2-10.8s-4.2-4-8.2-4.6c-1.5-0.2-3.3-0.3-5.4-0.2
		c-2.1,0.1-4.4,0.3-6.9,0.6l-6.1,41.8l1.5,2.2l5.5,1.3l-0.8,5.7L911.7,135.3z"/>
</g>
<text id="XMLID_4_" transform="matrix(1 0 0 1 332.7625 245.3776)" class="st4 st5">Horsing Around</text>
</svg>
