<?xml version="1.0" encoding="utf-8"?>
<!-- Generator: Adobe Illustrator 19.0.0, SVG Export Plug-In . SVG Version: 6.00 Build 0)  -->
<!DOCTYPE svg PUBLIC "-//W3C//DTD SVG 1.1//EN" "http://www.w3.org/Graphics/SVG/1.1/DTD/svg11.dtd">
<svg version="1.1" id="Layer_1" xmlns="http://www.w3.org/2000/svg" xmlns:xlink="http://www.w3.org/1999/xlink" x="0px" y="0px"
	 viewBox="0 0 1000 282" style="enable-background:new 0 0 1000 282;" xml:space="preserve">
<style type="text/css">
	.st0{fill:#EF4A3D;}
	.st1{fill:#931317;}
	.st2{fill:#FFFFFF;}
	.st3{fill:#810015;}
	.st4{fill:#A32020;}
	.st5{fill:none;}
	.st6{font-family:'Charter-BoldItalic';}
	.st7{font-size:50px;}
	.st8{fill:#E0301E;}
	.st9{opacity:0.5;fill-rule:evenodd;clip-rule:evenodd;fill:#FFFFFF;}
	.st10{font-size:48px;}
	.st11{font-size:64px;}
</style>
<polygon class="st0" points="597.3,109 628.4,154.5 612.4,200 698.5,200 698.5,109 "/>
<polygon class="st1" points="597.3,109 628.4,154.5 612.4,200 698.5,200 698.5,109 "/>
<polygon class="st0" points="0,82 31.1,127.5 15.1,173 101.2,173 101.2,82 "/>
<polygon class="st1" points="0,82 31.1,127.5 15.1,173 101.2,173 101.2,82 "/>
<polygon class="st2" points="16.8,167.7 96.8,167.7 97.8,164.2 17.8,164.2 "/>
<polygon class="st3" points="72.4,148.3 101.2,173 101.2,66.8 "/>
<polygon class="st0" points="301.5,109 301.5,200 649.7,200 633.7,154.5 664.8,109 "/>
<polygon class="st1" points="301.5,109 301.5,200 649.7,200 633.7,154.5 664.8,109 "/>
<polygon class="st3" points="330.3,148.3 301.5,197.9 301.5,66.8 "/>
<polygon class="st2" points="5.8,91.4 303,91.4 305,87.9 3.8,87.9 "/>
<polygon class="st4" points="329.7,149.8 72.7,149.8 28,55.8 357.8,55.8 "/>
<polygon class="st2" points="353.9,66.4 31.9,66.4 29.9,62.9 355.9,62.9 "/>
<polygon class="st2" points="333.7,142.7 68.7,142.7 66.7,139.2 334.7,139.2 "/>
<rect x="102" y="58.2" class="st5" width="191.5" height="92.4"/>
<text transform="matrix(1 0 0 1 108.1204 117.9099)" class="st2 st6 st7">Horsing</text>
<polygon class="st3" points="669.7,148.3 698.5,197.9 698.5,66.8 "/>
<polygon class="st0" points="898.8,82 898.8,172.9 984.9,172.9 968.9,127.5 1000,82 "/>
<polygon class="st1" points="898.8,82 898.8,172.9 984.9,172.9 968.9,127.5 1000,82 "/>
<polygon class="st2" points="983,167.7 903,167.7 902,164.2 982,164.2 "/>
<polygon class="st3" points="927.6,148.3 898.8,172.9 898.8,66.8 "/>
<polygon class="st2" points="994,91.4 696.8,91.4 694.8,87.9 996,87.9 "/>
<polygon class="st4" points="927,149.8 670,149.8 641.9,55.8 971.8,55.8 "/>
<polygon class="st2" points="967.9,66.4 645.8,66.4 643.8,62.9 969.9,62.9 "/>
<polygon class="st2" points="931,142.7 666,142.7 665,139.2 933,139.2 "/>
<rect x="705.5" y="58.2" class="st5" width="183.1" height="92.4"/>
<text transform="matrix(1 0 0 1 711.8367 117.9099)" class="st2 st6 st7">Around</text>
<polygon class="st2" points="660.9,119.4 338.9,119.4 339.9,115.9 659.9,115.9 "/>
<polygon class="st2" points="694.9,192.4 304.5,192.4 306.5,188.9 692.9,188.9 "/>
<path class="st8" d="M499.5,0.4c0.8-0.6,2.1-0.6,2.9,0l6.1,4.3c0.8,0.6,2.2,0.7,3.1,0.2l6.6-3.5c0.9-0.5,2.2-0.3,2.9,0.4l5.5,5.1
	c0.7,0.7,2.1,0.9,3,0.6l7-2.6c0.9-0.3,2.2,0,2.8,0.8l4.7,5.8c0.6,0.8,1.9,1.2,2.9,1l7.3-1.6c1-0.2,2.2,0.3,2.7,1.1l3.9,6.4
	c0.5,0.8,1.8,1.5,2.7,1.4l7.5-0.6c1-0.1,2.1,0.6,2.5,1.5l3,6.8c0.4,0.9,1.5,1.7,2.5,1.7l7.5,0.4c1,0,2,0.9,2.3,1.8l2.1,7.2
	c0.3,1,1.3,1.9,2.3,2.1l7.4,1.4c1,0.2,1.9,1.1,2,2.1l1.1,7.4c0.2,1,1,2,2,2.3l7.1,2.3c0.9,0.3,1.7,1.4,1.7,2.4l0.1,7.5
	c0,1,0.8,2.2,1.7,2.6l6.7,3.3c0.9,0.4,1.5,1.6,1.4,2.6l-0.9,7.4c-0.1,1,0.5,2.2,1.3,2.8l6.2,4.1c0.8,0.6,1.3,1.8,1,2.7l-1.9,7.2
	c-0.2,1,0.2,2.3,0.9,2.9l5.6,4.9c0.8,0.7,1,1.9,0.7,2.8l-2.8,6.9c-0.4,0.9-0.1,2.3,0.5,3l4.9,5.6c0.7,0.8,0.8,2.1,0.3,2.9l-3.7,6.5
	c-0.5,0.9-0.4,2.2,0.1,3.1l4.1,6.2c0.5,0.8,0.5,2.1-0.1,2.9l-4.5,5.9c-0.6,0.8-0.7,2.2-0.3,3.1l3.3,6.7c0.4,0.9,0.2,2.2-0.5,2.9
	l-5.3,5.3c-0.7,0.7-1,2-0.7,3l2.3,7.1c0.3,0.9-0.1,2.2-0.9,2.8l-6,4.5c-0.8,0.6-1.3,1.9-1.1,2.9l1.4,7.4c0.2,1-0.4,2.2-1.2,2.7
	l-6.5,3.7c-0.9,0.5-1.5,1.7-1.5,2.7l0.4,7.5c0.1,1-0.7,2.1-1.6,2.5l-6.9,2.8c-0.9,0.4-1.7,1.5-1.8,2.5l-0.6,7.5
	c-0.1,1-0.9,2-1.9,2.2l-7.2,1.9c-1,0.2-1.9,1.2-2.1,2.2l-1.6,7.3c-0.2,1-1.2,1.9-2.2,2l-7.4,0.9c-1,0.1-2.1,1-2.4,1.9l-2.6,7
	c-0.3,0.9-1.4,1.7-2.4,1.7l-7.5-0.1c-1,0-2.2,0.7-2.6,1.6l-3.5,6.6c-0.5,0.9-1.6,1.5-2.6,1.3l-7.4-1.1c-1-0.1-2.2,0.4-2.8,1.2
	l-4.3,6.1c-0.6,0.8-1.8,1.2-2.8,1l-7.2-2.1c-0.9-0.3-2.3,0.1-3,0.8l-5.1,5.5c-0.7,0.7-2,1-2.9,0.6l-6.8-3c-0.9-0.4-2.3-0.2-3,0.4
	l-5.8,4.7c-0.8,0.6-2.1,0.7-2.9,0.2l-6.4-3.9c-0.8-0.5-2.2-0.5-3.1,0l-6.4,3.9c-0.8,0.5-2.2,0.4-2.9-0.2l-5.8-4.7
	c-0.8-0.6-2.1-0.8-3-0.4l-6.8,3c-0.9,0.4-2.2,0.1-2.9-0.6l-5.1-5.5c-0.7-0.7-2-1.1-3-0.8l-7.2,2.1c-0.9,0.3-2.2-0.2-2.8-1l-4.3-6.1
	c-0.6-0.8-1.8-1.3-2.8-1.2l-7.4,1.1c-1,0.1-2.1-0.5-2.6-1.3l-3.5-6.6c-0.5-0.9-1.6-1.6-2.6-1.6l-7.5,0.1c-1,0-2.1-0.7-2.4-1.7
	l-2.6-7c-0.3-0.9-1.4-1.8-2.4-1.9l-7.4-0.9c-1-0.1-2-1-2.2-2l-1.6-7.3c-0.2-1-1.2-1.9-2.1-2.2l-7.2-1.9c-1-0.2-1.8-1.2-1.9-2.2
	l-0.6-7.5c-0.1-1-0.9-2.1-1.8-2.5l-7-2.8c-0.9-0.4-1.6-1.5-1.6-2.5l0.4-7.5c0.1-1-0.6-2.2-1.5-2.7l-6.5-3.7
	c-0.9-0.5-1.4-1.7-1.2-2.7l1.4-7.4c0.2-1-0.3-2.3-1.1-2.9l-6-4.5c-0.8-0.6-1.2-1.9-0.9-2.8l2.3-7.1c0.3-0.9,0-2.3-0.7-3l-5.3-5.3
	c-0.7-0.7-0.9-2-0.5-2.9l3.3-6.7c0.4-0.9,0.3-2.3-0.3-3.1l-4.5-5.9c-0.6-0.8-0.6-2.1-0.1-2.9l4.1-6.2c0.5-0.8,0.6-2.2,0.1-3.1
	l-3.7-6.5c-0.5-0.9-0.4-2.2,0.3-2.9l4.9-5.6c0.6-0.7,0.9-2.1,0.5-3l-2.8-6.9c-0.4-0.9-0.1-2.2,0.7-2.8l5.6-4.9
	c0.8-0.7,1.2-2,0.9-2.9l-1.9-7.2c-0.2-0.9,0.2-2.2,1.1-2.7l6.2-4.1c0.8-0.6,1.4-1.8,1.3-2.8l-0.9-7.4c-0.1-1,0.5-2.1,1.4-2.6
	l6.7-3.3c0.9-0.4,1.6-1.6,1.6-2.6l0.1-7.5c0-1,0.8-2.1,1.8-2.4L396,54c0.9-0.3,1.8-1.4,2-2.3l1.1-7.4c0.2-1,1.1-1.9,2-2.1l7.4-1.4
	c1-0.2,2-1.1,2.3-2.1l2.1-7.2c0.3-1,1.3-1.8,2.3-1.8l7.5-0.4c1,0,2.1-0.8,2.5-1.7l3-6.8c0.4-0.9,1.5-1.6,2.5-1.5l7.5,0.6
	c1,0.1,2.2-0.5,2.7-1.4l3.9-6.4c0.5-0.8,1.7-1.4,2.7-1.1l7.3,1.6c1,0.2,2.3-0.2,2.9-1l4.7-5.8c0.6-0.8,1.9-1.1,2.8-0.8l7,2.6
	c0.9,0.3,2.3,0.1,3-0.6l5.5-5.1c0.7-0.7,2-0.9,2.9-0.4l6.6,3.5c0.9,0.5,2.2,0.4,3.1-0.2L499.5,0.4z"/>
<path class="st2" d="M608.2,140.5c0,59.2-48,107.1-107.2,107.1s-107.2-48-107.2-107.1S441.8,33.4,501,33.4S608.2,81.3,608.2,140.5z"
	/>
<path class="st9" d="M511.7,16.6c1.6,0.1,3.1-0.5,3.1-1.4c0.1-0.9-1.2-1.8-2.8-1.9c-1.6-0.1-3,0.5-3.1,1.4
	C508.8,15.5,510.1,16.4,511.7,16.6z M490.3,264.4c-1.6-0.1-3.1,0.5-3.1,1.4c-0.1,0.9,1.2,1.8,2.8,2c1.7,0.1,3-0.5,3.1-1.5
	C493.2,265.4,491.9,264.6,490.3,264.4z M479.5,263c-1.6-0.3-3.1,0.2-3.2,1.2s1,1.9,2.7,2.2c1.6,0.3,3.1-0.2,3.2-1.2
	C482.3,264.3,481.1,263.3,479.5,263z M522.5,18c1.6,0.3,3.1-0.2,3.2-1.2c0.2-0.9-1-1.9-2.6-2.2c-1.6-0.3-3.1,0.2-3.2,1.2
	C519.7,16.7,520.9,17.7,522.5,18z M533.1,20.3c1.6,0.4,3.1,0,3.3-0.9c0.2-0.9-0.8-2-2.5-2.4c-1.6-0.4-3.1,0-3.3,0.9
	C530.4,18.8,531.5,19.9,533.1,20.3z M468.9,260.7c-1.6-0.4-3.1,0-3.3,0.9s0.9,2,2.5,2.4c1.6,0.4,3.1,0,3.3-0.9
	C471.6,262.2,470.5,261.1,468.9,260.7z M543.5,23.6c1.5,0.6,3.1,0.3,3.4-0.6c0.3-0.9-0.7-2.1-2.2-2.6c-1.6-0.6-3.1-0.3-3.4,0.6
	C540.9,21.8,541.9,23,543.5,23.6z M458.5,257.4c-1.6-0.6-3.1-0.3-3.4,0.6c-0.3,0.9,0.7,2.1,2.2,2.6c1.5,0.6,3.1,0.3,3.4-0.6
	C461.1,259.2,460.1,258,458.5,257.4z M448.5,253.3c-1.5-0.7-3-0.6-3.4,0.3c-0.4,0.9,0.5,2.1,2,2.8c1.5,0.7,3,0.6,3.4-0.3
	C450.9,255.2,450,254,448.5,253.3z M553.5,27.7c1.5,0.7,3,0.6,3.4-0.3c0.4-0.9-0.5-2.1-2-2.8c-1.5-0.7-3-0.6-3.4,0.3
	C551.2,25.8,552,27,553.5,27.7z M563.2,32.7c1.4,0.8,3,0.8,3.5,0c0.5-0.8-0.3-2.2-1.7-3s-3-0.8-3.4,0
	C561,30.6,561.8,31.9,563.2,32.7z M438.8,248.3c-1.4-0.8-3-0.8-3.5,0c-0.5,0.8,0.3,2.1,1.7,3c1.4,0.8,3,0.8,3.4,0
	C441,250.4,440.2,249.1,438.8,248.3z M429.6,242.5c-1.4-0.9-2.9-1.1-3.4-0.3c-0.5,0.8,0.1,2.2,1.5,3.1c1.4,0.9,2.9,1.1,3.4,0.3
	C431.6,244.8,431,243.4,429.6,242.5z M572.4,38.5c1.4,0.9,2.9,1.1,3.4,0.3c0.5-0.8-0.1-2.2-1.5-3.1c-1.4-1-2.9-1.1-3.4-0.3
	C570.3,36.2,571,37.6,572.4,38.5z M584.4,45.7c0.6-0.7,0.1-2.2-1.2-3.2c-1.3-1.1-2.8-1.3-3.4-0.6c-0.6,0.7-0.1,2.2,1.2,3.2
	C582.3,46.2,583.8,46.5,584.4,45.7z M417.6,235.2c-0.6,0.7-0.1,2.2,1.2,3.2c1.3,1.1,2.8,1.3,3.4,0.6c0.6-0.7,0.1-2.2-1.2-3.2
	C419.7,234.8,418.2,234.5,417.6,235.2z M409.7,227.6c-0.7,0.7-0.3,2.2,0.9,3.3c1.2,1.2,2.7,1.6,3.3,0.9c0.7-0.7,0.3-2.2-0.9-3.3
	C411.8,227.4,410.3,227,409.7,227.6z M592.3,53.4c0.7-0.7,0.3-2.2-0.9-3.3s-2.7-1.6-3.3-0.9c-0.7,0.7-0.3,2.2,0.9,3.3
	C590.2,53.6,591.7,54,592.3,53.4z M402.4,219.3c-0.7,0.6-0.4,2.1,0.6,3.4c1.1,1.3,2.5,1.8,3.2,1.2c0.7-0.6,0.5-2.1-0.6-3.4
	C404.6,219.3,403.1,218.7,402.4,219.3z M599.6,61.6c0.7-0.6,0.4-2.1-0.6-3.4c-1.1-1.3-2.5-1.8-3.2-1.2c-0.7,0.6-0.4,2.1,0.6,3.4
	C597.4,61.7,598.9,62.3,599.6,61.6z M606.1,70.5c0.8-0.5,0.6-2.1-0.3-3.4c-0.9-1.3-2.3-2-3.1-1.5s-0.6,2.1,0.3,3.4
	C603.9,70.4,605.3,71.1,606.1,70.5z M395.9,210.5c-0.8,0.5-0.6,2.1,0.3,3.4c1,1.4,2.3,2,3.1,1.5c0.8-0.5,0.6-2.1-0.3-3.4
	C398,210.6,396.7,209.9,395.9,210.5z M390.2,201c-0.8,0.5-0.8,2,0,3.4c0.8,1.4,2.2,2.2,3,1.7c0.8-0.5,0.8-2,0-3.4
	C392.3,201.3,391,200.6,390.2,201z M611.8,79.9c0.8-0.5,0.8-2,0-3.4c-0.8-1.4-2.2-2.2-3-1.7c-0.8,0.5-0.8,2,0,3.4
	C609.7,79.6,611,80.4,611.8,79.9z M616.7,89.8c0.9-0.4,1-1.9,0.3-3.4c-0.7-1.5-2-2.4-2.8-2c-0.9,0.4-1,1.9-0.3,3.4
	C614.6,89.3,615.8,90.2,616.7,89.8z M385.3,191.2c-0.9,0.4-1,1.9-0.3,3.4c0.7,1.5,2,2.4,2.8,2c0.9-0.4,1-1.9,0.3-3.4
	C387.4,191.7,386.2,190.8,385.3,191.2z M381.3,180.9c-0.9,0.3-1.1,1.8-0.6,3.4c0.6,1.6,1.7,2.5,2.6,2.2c0.9-0.3,1.1-1.8,0.6-3.4
	C383.4,181.6,382.2,180.6,381.3,180.9z M620.7,100.1c0.9-0.3,1.2-1.8,0.6-3.4c-0.6-1.6-1.7-2.5-2.6-2.2c-0.9,0.3-1.2,1.8-0.6,3.4
	S619.8,100.4,620.7,100.1z M380.7,172.8c-0.4-1.6-1.5-2.7-2.4-2.4s-1.3,1.7-0.9,3.3c0.4,1.6,1.5,2.7,2.4,2.4
	C380.7,175.9,381.1,174.4,380.7,172.8z M621.3,108.2c0.4,1.6,1.5,2.7,2.4,2.4c0.9-0.2,1.3-1.7,0.9-3.3c-0.4-1.6-1.5-2.7-2.4-2.4
	S620.9,106.6,621.3,108.2z M378.3,162.2c-0.3-1.6-1.3-2.8-2.2-2.6c-0.9,0.2-1.4,1.6-1.2,3.2c0.3,1.6,1.3,2.8,2.2,2.6
	C378.1,165.2,378.6,163.8,378.3,162.2z M623.7,118.8c0.3,1.6,1.3,2.8,2.2,2.6c0.9-0.2,1.5-1.6,1.2-3.2c-0.3-1.6-1.3-2.8-2.2-2.6
	C623.9,115.7,623.4,117.2,623.7,118.8z M376.9,151.4c-0.1-1.6-1-2.9-2-2.8c-1,0.1-1.6,1.5-1.4,3.1c0.1,1.6,1,2.9,2,2.8
	C376.4,154.5,377,153.1,376.9,151.4z M625.1,129.6c0.2,1.6,1,2.9,2,2.8c0.9-0.1,1.6-1.5,1.4-3.1c-0.2-1.6-1-2.9-2-2.8
	C625.6,126.5,625,127.9,625.1,129.6z M374.7,143.6c1,0,1.7-1.3,1.7-3c0-1.6-0.8-3-1.7-3c-0.9,0-1.7,1.3-1.7,3
	C373,142.2,373.8,143.6,374.7,143.6z M627.3,137.4c-0.9,0-1.7,1.3-1.7,3c0,1.7,0.8,3,1.7,3c1,0,1.7-1.3,1.7-3
	C629,138.8,628.2,137.4,627.3,137.4z M374.9,132.5c0.9,0.1,1.8-1.2,2-2.8c0.1-1.6-0.5-3-1.4-3.1c-1-0.1-1.8,1.2-2,2.8
	C373.3,131.1,374,132.5,374.9,132.5z M627.1,148.4c-0.9-0.1-1.8,1.2-2,2.8c-0.2,1.6,0.5,3,1.4,3.1s1.8-1.2,2-2.8
	C628.7,149.9,628,148.5,627.1,148.4z M625.9,159.4c-0.9-0.2-1.9,1-2.2,2.6c-0.3,1.6,0.2,3.1,1.2,3.2s1.9-1,2.2-2.6
	C627.3,161,626.8,159.5,625.9,159.4z M376.1,121.6c0.9,0.2,1.9-1,2.2-2.6c0.3-1.6-0.2-3.1-1.2-3.2c-0.9-0.2-1.9,1-2.2,2.6
	C374.6,120,375.2,121.4,376.1,121.6z M378.2,110.8c0.9,0.2,2-0.9,2.4-2.4c0.4-1.6,0-3.1-0.9-3.3c-0.9-0.2-2,0.8-2.4,2.5
	C376.9,109.1,377.3,110.6,378.2,110.8z M623.8,170.2c-0.9-0.2-2,0.9-2.4,2.4c-0.4,1.6,0,3.1,0.9,3.3c0.9,0.2,2-0.9,2.4-2.4
	C625.1,171.9,624.7,170.4,623.8,170.2z M620.7,180.8c-0.9-0.3-2.1,0.7-2.6,2.2c-0.6,1.6-0.3,3.1,0.6,3.4c0.9,0.3,2.1-0.7,2.6-2.2
	C621.9,182.6,621.6,181.1,620.7,180.8z M381.3,100.2c0.9,0.3,2.1-0.7,2.6-2.2s0.3-3.1-0.6-3.4c-0.9-0.3-2.1,0.7-2.6,2.2
	C380.1,98.4,380.4,99.9,381.3,100.2z M616.8,191c-0.9-0.4-2.1,0.5-2.8,2c-0.7,1.5-0.6,3,0.3,3.4c0.9,0.4,2.1-0.5,2.8-2
	C617.7,193,617.6,191.4,616.8,191z M385.3,90c0.8,0.4,2.1-0.5,2.8-2c0.7-1.5,0.6-3-0.3-3.4c-0.9-0.4-2.1,0.5-2.8,2
	S384.4,89.6,385.3,90z M393.1,78.3c0.8-1.4,0.8-3,0-3.4s-2.1,0.3-3,1.7c-0.8,1.4-0.8,3,0,3.4C390.9,80.5,392.3,79.8,393.1,78.3z
	 M608.9,202.6c-0.8,1.4-0.8,3,0,3.4c0.8,0.5,2.1-0.3,3-1.7c0.8-1.4,0.8-3,0-3.4S609.7,201.2,608.9,202.6z M603.1,211.8
	c-1,1.4-1.1,2.9-0.3,3.4c0.8,0.5,2.2-0.1,3.1-1.5c0.9-1.4,1.1-2.9,0.3-3.4C605.4,209.8,604,210.5,603.1,211.8z M398.9,69.2
	c0.9-1.3,1.1-2.9,0.3-3.4c-0.8-0.5-2.2,0.1-3.1,1.5c-0.9,1.3-1.1,2.9-0.3,3.4C396.6,71.2,398,70.5,398.9,69.2z M596.5,220.4
	c-1.1,1.3-1.3,2.8-0.6,3.4c0.7,0.6,2.2,0.1,3.2-1.2c1.1-1.3,1.3-2.8,0.6-3.4C599,218.6,597.5,219.2,596.5,220.4z M405.5,60.6
	c1.1-1.3,1.3-2.8,0.6-3.4c-0.7-0.6-2.2-0.1-3.2,1.2c-1.1,1.3-1.3,2.8-0.6,3.4C403,62.4,404.5,61.8,405.5,60.6z M589.1,228.4
	c-1.2,1.2-1.6,2.6-0.9,3.3c0.7,0.7,2.2,0.3,3.3-0.9c1.2-1.2,1.6-2.6,0.9-3.3C591.8,226.9,590.3,227.3,589.1,228.4z M412.9,52.6
	c1.2-1.2,1.6-2.7,0.9-3.3c-0.7-0.7-2.1-0.2-3.3,0.9c-1.2,1.2-1.6,2.6-0.9,3.3C410.2,54.1,411.7,53.7,412.9,52.6z M581.1,235.8
	c-1.3,1.1-1.8,2.5-1.2,3.2c0.6,0.7,2.1,0.4,3.4-0.6c1.3-1.1,1.8-2.5,1.2-3.2C583.9,234.4,582.4,234.7,581.1,235.8z M420.9,45.2
	c1.3-1.1,1.8-2.5,1.2-3.2c-0.6-0.7-2.1-0.5-3.4,0.6c-1.3,1.1-1.8,2.5-1.2,3.2C418.1,46.6,419.6,46.3,420.9,45.2z M572.5,242.4
	c-1.3,0.9-2,2.3-1.5,3.1c0.5,0.8,2.1,0.6,3.4-0.3c1.3-0.9,2-2.3,1.5-3.1C575.4,241.3,573.8,241.4,572.5,242.4z M429.5,38.6
	c1.4-1,2-2.3,1.5-3.1c-0.5-0.8-2.1-0.6-3.4,0.3s-2,2.3-1.5,3.1S428.2,39.6,429.5,38.6z M563.3,248.2c-1.4,0.8-2.2,2.1-1.7,3
	c0.5,0.8,2,0.8,3.4,0c1.4-0.8,2.2-2.1,1.7-3C566.3,247.4,564.7,247.4,563.3,248.2z M438.7,32.8c1.4-0.8,2.2-2.2,1.7-3
	c-0.5-0.8-2-0.8-3.4,0c-1.4,0.8-2.2,2.1-1.7,3C435.7,33.6,437.3,33.6,438.7,32.8z M553.7,253.2c-1.5,0.7-2.4,2-2,2.8
	c0.4,0.9,1.9,1,3.4,0.3c1.5-0.7,2.4-1.9,2-2.8C556.7,252.6,555.2,252.5,553.7,253.2z M448.3,27.8c1.5-0.7,2.4-2,2-2.8
	c-0.4-0.9-1.9-1-3.4-0.3c-1.5,0.7-2.4,2-2,2.8C445.3,28.3,446.8,28.5,448.3,27.8z M543.6,257.4c-1.5,0.6-2.5,1.7-2.2,2.6
	c0.3,0.9,1.8,1.1,3.4,0.6c1.6-0.6,2.6-1.7,2.2-2.6C546.7,257.1,545.2,256.8,543.6,257.4z M458.4,23.6c1.6-0.6,2.6-1.7,2.2-2.6
	c-0.3-0.9-1.8-1.1-3.4-0.6c-1.5,0.6-2.5,1.7-2.2,2.6C455.3,23.9,456.8,24.2,458.4,23.6z M468.7,20.3c1.6-0.4,2.7-1.5,2.5-2.4
	c-0.2-0.9-1.7-1.3-3.3-0.9c-1.6,0.4-2.7,1.5-2.4,2.4C465.7,20.4,467.1,20.8,468.7,20.3z M533.3,260.6c-1.6,0.4-2.7,1.5-2.5,2.4
	c0.2,0.9,1.7,1.3,3.3,0.9c1.6-0.4,2.7-1.5,2.5-2.4C536.3,260.6,534.8,260.2,533.3,260.6z M522.6,263c-1.6,0.3-2.8,1.3-2.6,2.2
	c0.2,0.9,1.6,1.5,3.2,1.2c1.6-0.3,2.8-1.3,2.6-2.2C525.7,263.2,524.3,262.7,522.6,263z M479.4,18c1.6-0.3,2.8-1.3,2.6-2.2
	c-0.2-0.9-1.6-1.4-3.2-1.2c-1.6,0.3-2.8,1.3-2.6,2.2C476.3,17.8,477.7,18.3,479.4,18z M490.1,16.6c1.6-0.1,2.9-1,2.8-1.9
	c-0.1-0.9-1.5-1.6-3.1-1.4s-2.9,1-2.8,2C487.1,16.1,488.5,16.7,490.1,16.6z M511.9,264.4c-1.6,0.1-2.9,1-2.8,1.9
	c0.1,0.9,1.5,1.6,3.1,1.4c1.6-0.1,2.9-1,2.8-2C514.9,264.9,513.5,264.3,511.9,264.4z M501,12.7c-1.6,0-3,0.8-3,1.7
	c0,0.9,1.3,1.7,3,1.7s3-0.8,3-1.7C504,13.5,502.6,12.7,501,12.7z M501,264.9c-1.6,0-3,0.8-3,1.7c0,1,1.3,1.7,3,1.7s3-0.8,3-1.7
	C504,265.6,502.6,264.9,501,264.9z"/>
<rect x="346" y="1" class="st5" width="310" height="281"/>
<rect x="417.6" y="31.3" class="st5" width="168.6" height="213.4"/>
<text transform="matrix(1 0 0 1 455.72 88.642)"><tspan x="0" y="0" class="st4 st6 st10">race</tspan><tspan x="24.1" y="57.6" class="st4 st6 st10">to</tspan><tspan x="-17.4" y="126.4" class="st4 st6 st11">WIN</tspan></text>
</svg>
