<?xml version="1.0" encoding="utf-8"?>
<!-- Generator: Adobe Illustrator 19.0.0, SVG Export Plug-In . SVG Version: 6.00 Build 0)  -->
<!DOCTYPE svg PUBLIC "-//W3C//DTD SVG 1.1//EN" "http://www.w3.org/Graphics/SVG/1.1/DTD/svg11.dtd">
<svg version="1.1" id="PwC" xmlns="http://www.w3.org/2000/svg" xmlns:xlink="http://www.w3.org/1999/xlink" x="0px" y="0px"
	 viewBox="0 0 283.5 215.1" style="enable-background:new 0 0 283.5 215.1;" xml:space="preserve">
<style type="text/css">
	.st0{fill:#FFFFFF;}
	.st1{opacity:0.53;fill:#FFFFFF;}
	.st2{opacity:0.36;fill:#FFFFFF;}
	.st3{opacity:0.92;fill:#FFFFFF;}
	.st4{opacity:0.85;fill:#FFFFFF;}
	.st5{opacity:0.87;fill:#FFFFFF;}
	.st6{opacity:0.73;fill:#FFFFFF;}
	.st7{opacity:0.67;fill:#FFFFFF;}
	.st8{opacity:0.61;fill:#FFFFFF;}
	.st9{opacity:0.44;fill:#FFFFFF;}
	.st10{opacity:0.31;fill:#FFFFFF;}
	.st11{opacity:0.52;fill:#FFFFFF;}
</style>
<g>
	<g>
		<path class="st0" d="M191.9,142.1c-9.1,1.5-13.8,8.2-13.8,20.1c0,11.9,6.2,19.9,15.7,19.9c4.4,0,8.5-1.5,16.9-5.6v9.7
			c-10.2,4.7-16.1,6.1-24.3,6.1c-8.9,0-15.1-2.4-20.2-7.5c-5.2-5.2-7.8-12.1-7.8-19.8c0-17.1,12.6-28.6,31.1-28.6
			c12.3,0,20.7,5.6,20.7,13.8c0,5.3-3.9,8.9-9.8,8.9c-3,0-5.4-0.8-8.6-2.6V142.1z"/>
		<path class="st0" d="M146.9,164.9c8.2-10.3,11.1-14.5,11.1-19.5c0-5-4-9.1-9.3-9.1c-3.3,0-6.3,1.6-7.7,3.2v21l-13.4,17.9v-40.7
			h-12.7l-21.2,35.1v-35.1h-7.3l-19.2,4.7v4.9l10.5,1.1v43.1h13.6l20.3-33.4v33.4h14.8L146.9,164.9z"/>
		<path class="st0" d="M26.6,184.7c1.4,0.1,2.1,0.1,3,0.1c10.9,0,16.8-6.8,16.8-19.9c0-11-4.8-16.9-13.6-16.9c-1.5,0-3,0.2-6.1,0.6
			V184.7z M26.6,208.2l8.8,2l0,5H0.9v-5l7.9-2V148H0v-5.2l21.1-6.4h5.5v7.2c9.9-5.9,13.3-6.9,18.3-6.9c11.7,0,20.3,10.8,20.3,25.7
			c0,17.3-11.5,28.9-29.7,28.9c-2.1,0-5.5-0.1-9-0.5V208.2z"/>
	</g>
	<rect x="270.1" y="66" class="st1" width="13.4" height="26.4"/>
	<rect x="243.4" y="26.4" class="st2" width="26.7" height="39.6"/>
	<rect x="127.6" y="92.4" class="st3" width="52.8" height="13.2"/>
	<rect x="180.4" y="66" class="st3" width="32.9" height="26.4"/>
	<rect x="180.4" y="52.8" class="st4" width="32.9" height="13.2"/>
	<rect x="213.3" y="66" class="st5" width="19.7" height="26.4"/>
	<polygon class="st6" points="213.3,66 233,66 233,26.4 180.4,26.4 180.4,52.8 213.3,52.8 	"/>
	<rect x="233" y="66" class="st6" width="10.4" height="26.4"/>
	<rect x="243.4" y="66" class="st7" width="26.7" height="26.4"/>
	<rect x="180.4" y="10.3" class="st8" width="52.6" height="16.1"/>
	<rect x="180.4" class="st9" width="52.6" height="10.3"/>
	<rect x="233" y="10.3" class="st10" width="10.4" height="16.1"/>
	<rect x="233" y="26.4" class="st11" width="10.4" height="39.6"/>
</g>
</svg>
