<?xml version="1.0" encoding="utf-8"?>
<!-- Generator: Adobe Illustrator 19.0.0, SVG Export Plug-In . SVG Version: 6.00 Build 0)  -->
<!DOCTYPE svg PUBLIC "-//W3C//DTD SVG 1.1//EN" "http://www.w3.org/Graphics/SVG/1.1/DTD/svg11.dtd">
<svg version="1.1" id="Layer_1" xmlns="http://www.w3.org/2000/svg" xmlns:xlink="http://www.w3.org/1999/xlink" x="0px" y="0px"
	 viewBox="-395 411.7 408 379.3" style="enable-background:new -395 411.7 408 379.3;" xml:space="preserve">
<style type="text/css">
	.st0{fill:#5D5D5D;}
	.st1{fill:#FFFFFF;}
	.st2{fill:none;}
	.st3{clip-path:url(#XMLID_2_);}
	.st4{fill:#F5C000;}
	.st5{clip-path:url(#SVGID_2_);fill:#808080;stroke:#000000;stroke-width:3;stroke-miterlimit:10;}
	.st6{opacity:0.6;enable-background:new    ;}
	.st7{clip-path:url(#SVGID_4_);fill:#FFFFFF;}
	.st8{opacity:0.2;enable-background:new    ;}
	.st9{clip-path:url(#SVGID_6_);fill:#030303;}
	.st10{fill:none;stroke:#000000;stroke-width:3;stroke-miterlimit:10;}
</style>
<path class="st0" d="M-192.9,421.8c1.1-0.8,2.8-0.8,3.9,0l8,5.7c1.1,0.8,2.9,0.9,4,0.3l8.7-4.6c1.1-0.6,2.9-0.4,3.8,0.5l7.2,6.7
	c0.9,0.9,2.7,1.2,3.9,0.8l9.3-3.4c1.2-0.5,2.9,0,3.7,1l6.2,7.6c0.8,1,2.5,1.6,3.8,1.3l9.6-2.1c1.3-0.3,2.9,0.4,3.6,1.5l5.2,8.4
	c0.7,1.1,2.3,1.9,3.6,1.8l9.8-0.8c1.3-0.1,2.8,0.8,3.3,2l4,9c0.5,1.2,2,2.2,3.3,2.3l9.8,0.5c1.3,0.1,2.7,1.1,3,2.4l2.8,9.5
	c0.4,1.2,1.7,2.5,3,2.7l9.7,1.8c1.3,0.2,2.5,1.5,2.7,2.8l1.5,9.7c0.2,1.3,1.4,2.7,2.6,3.1l9.4,3.1c1.2,0.4,2.3,1.8,2.3,3.1l0.2,9.8
	c0,1.3,1,2.8,2.2,3.4l8.9,4.3c1.2,0.6,2,2.1,1.9,3.4l-1.1,9.8c-0.1,1.3,0.6,2.9,1.7,3.7l8.2,5.4c1.1,0.7,1.7,2.3,1.4,3.6l-2.4,9.5
	c-0.3,1.3,0.2,3,1.2,3.8l7.4,6.5c1,0.8,1.4,2.5,0.9,3.8l-3.7,9.1c-0.5,1.2-0.2,3,0.7,4l6.5,7.4c0.9,1,1,2.7,0.4,3.8l-4.9,8.6
	c-0.6,1.1-0.6,2.9,0.1,4l5.4,8.2c0.7,1.1,0.7,2.8-0.1,3.9l-6,7.8c-0.8,1-1,2.8-0.4,4l4.3,8.9c0.6,1.2,0.3,2.9-0.6,3.8l-7,7
	c-0.9,0.9-1.3,2.7-0.9,3.9l3.1,9.4c0.4,1.2-0.1,2.9-1.1,3.7l-7.8,6c-1,0.8-1.7,2.5-1.5,3.8l1.8,9.7c0.2,1.3-0.5,2.9-1.6,3.5
	l-8.6,4.9c-1.1,0.6-2,2.2-1.9,3.5l0.5,9.8c0.1,1.3-0.9,2.8-2.1,3.2l-9.1,3.7c-1.2,0.5-2.3,1.9-2.4,3.2l-0.8,9.8
	c-0.1,1.3-1.2,2.6-2.5,2.9l-9.5,2.4c-1.3,0.3-2.5,1.6-2.8,2.9l-2.1,9.6c-0.3,1.3-1.6,2.4-2.9,2.6l-9.8,1.2c-1.3,0.1-2.7,1.3-3.2,2.5
	l-3.4,9.2c-0.4,1.2-1.9,2.2-3.2,2.2l-9.9-0.2c-1.3,0-2.9,0.9-3.5,2.1l-4.6,8.7c-0.6,1.1-2.1,1.9-3.4,1.7l-9.8-1.5
	c-1.3-0.2-3,0.5-3.7,1.6l-5.7,8c-0.8,1.1-2.4,1.6-3.6,1.3l-9.5-2.8c-1.2-0.4-3,0.1-3.9,1.1l-6.7,7.2c-0.9,1-2.6,1.3-3.8,0.8l-9-4
	c-1.2-0.5-3-0.3-4,0.5l-7.6,6.2c-1,0.8-2.8,0.9-3.9,0.3l-8.4-5.1c-1.1-0.7-2.9-0.7-4,0l-8.4,5.1c-1.1,0.7-2.8,0.6-3.8-0.3l-7.6-6.2
	c-1-0.8-2.8-1.1-4-0.5l-9,4c-1.2,0.5-2.9,0.2-3.8-0.8l-6.7-7.2c-0.9-0.9-2.7-1.4-3.9-1.1l-9.4,2.8c-1.2,0.4-2.9-0.2-3.6-1.3l-5.7-8
	c-0.8-1.1-2.4-1.8-3.7-1.6l-9.7,1.5c-1.3,0.2-2.9-0.6-3.5-1.7l-4.6-8.7c-0.6-1.2-2.2-2.1-3.5-2.1l-9.8,0.2c-1.3,0-2.7-1-3.2-2.2
	l-3.4-9.2c-0.4-1.2-1.9-2.4-3.2-2.5l-9.8-1.2c-1.3-0.1-2.6-1.3-2.9-2.6l-2.1-9.6c-0.3-1.3-1.5-2.6-2.8-2.9l-9.6-2.4
	c-1.3-0.3-2.4-1.7-2.5-2.9l-0.8-9.8c-0.1-1.3-1.2-2.8-2.4-3.2l-9.1-3.7c-1.2-0.5-2.1-2-2.1-3.2l0.5-9.8c0.1-1.3-0.8-2.9-1.9-3.5
	l-8.6-4.9c-1.1-0.6-1.9-2.2-1.6-3.5l1.8-9.7c0.2-1.3-0.4-3-1.5-3.8l-7.8-6c-1-0.8-1.5-2.4-1.1-3.7l3.1-9.4c0.4-1.2,0-3-0.9-3.9l-7-7
	c-0.9-0.9-1.2-2.6-0.6-3.8l4.3-8.9c0.6-1.2,0.4-3-0.4-4l-6-7.8c-0.8-1-0.9-2.8-0.1-3.9l5.4-8.2c0.7-1.1,0.8-2.9,0.1-4l-4.9-8.6
	c-0.6-1.1-0.5-2.9,0.4-3.8l6.5-7.4c0.8-1,1.2-2.8,0.7-4l-3.7-9.1c-0.5-1.2-0.1-2.9,0.9-3.8l7.4-6.5c1-0.9,1.5-2.6,1.2-3.8l-2.4-9.5
	c-0.3-1.3,0.3-2.9,1.4-3.6l8.2-5.4c1.1-0.7,1.9-2.4,1.7-3.7l-1.1-9.8c-0.2-1.3,0.7-2.8,1.9-3.4l8.9-4.3c1.2-0.6,2.1-2.1,2.2-3.4
	l0.2-9.8c0-1.3,1-2.7,2.3-3.1l9.4-3.1c1.2-0.4,2.4-1.8,2.6-3.1l1.5-9.7c0.2-1.3,1.4-2.5,2.7-2.8l9.7-1.8c1.3-0.2,2.6-1.5,3-2.7
	l2-9.5c0.4-1.2,1.7-2.3,3-2.4l9.9-0.5c1.3-0.1,2.8-1.1,3.3-2.3l4-9c0.5-1.2,2-2.1,3.3-2l9.8,0.8c1.3,0.1,2.9-0.7,3.6-1.8l5.2-8.4
	c0.7-1.1,2.3-1.8,3.6-1.5l9.6,2.1c1.3,0.3,3-0.3,3.8-1.3l6.2-7.6c0.8-1,2.5-1.5,3.7-1l9.3,3.4c1.2,0.5,3,0.1,4-0.8l7.2-6.7
	c1-0.9,2.7-1.1,3.8-0.5l8.7,4.6c1.2,0.6,3,0.5,4-0.3L-192.9,421.8z"/>
<path class="st1" d="M-39.4,606.1c0,83.6-67.9,151.4-151.6,151.4s-151.6-67.8-151.6-151.4s67.9-151.4,151.6-151.4
	S-39.4,522.5-39.4,606.1z"/>
<path class="st1" d="M-176.9,443.1c2.2,0.2,4-0.7,4.1-1.9s-1.6-2.4-3.7-2.6c-2.2-0.2-4,0.7-4.1,1.9
	C-180.7,441.7-179.1,442.9-176.9,443.1z M-205.1,769.1c-2.2-0.2-4,0.7-4.1,1.9c-0.1,1.2,1.6,2.4,3.7,2.6c2.2,0.2,4-0.7,4.1-1.9
	S-202.9,769.3-205.1,769.1z M-219.3,767.3c-2.1-0.4-4.1,0.3-4.3,1.5c-0.2,1.2,1.4,2.5,3.5,2.9c2.2,0.4,4.1-0.3,4.3-1.5
	S-217.1,767.7-219.3,767.3z M-162.7,444.9c2.1,0.4,4.1-0.3,4.3-1.5c0.2-1.2-1.4-2.5-3.5-2.9c-2.1-0.4-4,0.3-4.2,1.5
	C-166.4,443.2-164.9,444.5-162.7,444.9z M-148.7,448c2.1,0.6,4.1,0.1,4.4-1.1c0.3-1.2-1.1-2.6-3.2-3.2c-2.1-0.6-4.1,0-4.4,1.2
	C-152.3,446-150.8,447.4-148.7,448z M-233.3,764.2c-2.1-0.6-4.1,0-4.4,1.2c-0.3,1.2,1.1,2.6,3.2,3.2c2.1,0.6,4.1,0,4.4-1.1
	C-229.7,766.2-231.2,764.8-233.3,764.2z M-135.1,452.3c2,0.7,4,0.4,4.5-0.8c0.4-1.2-0.9-2.7-2.9-3.5c-2-0.7-4-0.4-4.5,0.8
	C-138.4,450-137.1,451.5-135.1,452.3z M-246.9,759.9c-2.1-0.7-4.1-0.4-4.5,0.8s0.9,2.7,2.9,3.4c2.1,0.7,4,0.4,4.5-0.8
	C-243.6,762.2-244.9,760.7-246.9,759.9z M-260.1,754.5c-2-0.9-4-0.8-4.5,0.4c-0.5,1.1,0.6,2.8,2.6,3.7s4,0.8,4.5-0.4
	C-257,757.1-258.2,755.4-260.1,754.5z M-121.9,457.7c2,0.9,4,0.8,4.5-0.4c0.5-1.1-0.6-2.8-2.6-3.7s-4-0.8-4.5,0.4
	C-125,455.2-123.8,456.8-121.9,457.7z M-109.2,464.3c1.9,1.1,3.9,1.1,4.5,0s-0.4-2.8-2.3-3.9c-1.9-1.1-3.9-1.1-4.5,0
	C-112.1,461.5-111,463.2-109.2,464.3z M-272.8,747.9c-1.9-1.1-3.9-1.1-4.5,0c-0.6,1.1,0.4,2.8,2.3,3.9c1.9,1.1,3.9,1.1,4.5,0
	C-269.9,750.7-270.9,749-272.8,747.9z M-284.9,740.3c-1.8-1.2-3.8-1.4-4.5-0.4c-0.7,1,0.2,2.9,1.9,4.1c1.7,1.2,3.8,1.4,4.5,0.4
	C-282.3,743.3-283.1,741.5-284.9,740.3z M-97.1,472c1.8,1.2,3.8,1.4,4.5,0.4s-0.1-2.9-1.9-4.1c-1.8-1.2-3.8-1.4-4.5-0.4
	S-98.9,470.7-97.1,472z M-81.3,481.5c0.8-1,0.1-2.9-1.6-4.2c-1.7-1.4-3.7-1.7-4.5-0.8c-0.8,0.9-0.1,2.8,1.6,4.2
	C-84,482-82.1,482.4-81.3,481.5z M-300.7,730.8c-0.8,1-0.1,2.9,1.6,4.2c1.7,1.4,3.7,1.8,4.5,0.8c0.8-1,0.1-2.9-1.6-4.2
	C-297.9,730.2-299.9,729.8-300.7,730.8z M-311.2,720.7c-0.9,0.9-0.3,2.8,1.2,4.4c1.5,1.6,3.5,2.1,4.4,1.2c0.9-0.9,0.3-2.8-1.2-4.4
	C-308.4,720.4-310.3,719.9-311.2,720.7z M-70.8,491.5c0.9-0.9,0.3-2.8-1.2-4.4c-1.5-1.5-3.5-2.1-4.4-1.2c-0.9,0.9-0.4,2.8,1.2,4.4
	C-73.6,491.8-71.7,492.4-70.8,491.5z M-320.8,709.8c-0.9,0.8-0.6,2.8,0.8,4.4s3.3,2.4,4.2,1.6c0.9-0.8,0.6-2.8-0.8-4.4
	C-317.9,709.7-319.8,709-320.8,709.8z M-61.2,502.4c1-0.8,0.6-2.8-0.8-4.5c-1.4-1.7-3.3-2.4-4.2-1.6c-0.9,0.8-0.6,2.8,0.8,4.5
	C-64.1,502.5-62.2,503.2-61.2,502.4z M-52.7,514.1c1-0.7,0.8-2.7-0.4-4.5c-1.2-1.8-3.1-2.6-4.1-1.9s-0.8,2.7,0.4,4.5
	C-55.5,513.9-53.7,514.8-52.7,514.1z M-329.3,698.2c-1,0.7-0.8,2.7,0.4,4.5c1.2,1.8,3.1,2.6,4.1,1.9c1-0.7,0.8-2.7-0.4-4.5
	C-326.5,698.3-328.3,697.4-329.3,698.2z M-336.8,685.8c-1.1,0.6-1.1,2.6,0,4.5c1.1,1.9,2.8,2.9,3.9,2.3c1.1-0.6,1.1-2.7,0-4.5
	C-334,686.2-335.8,685.1-336.8,685.8z M-45.1,526.4c1.1-0.6,1.1-2.7,0-4.5c-1.1-1.9-2.8-2.9-3.9-2.3c-1.1,0.6-1.1,2.6,0,4.5
	C-48,526.1-46.2,527.1-45.1,526.4z M-38.8,539.4c1.1-0.5,1.3-2.6,0.4-4.5c-0.9-2-2.6-3.1-3.7-2.6s-1.3,2.5-0.4,4.5
	C-41.5,538.8-39.9,540-38.8,539.4z M-343.2,672.8c-1.1,0.5-1.3,2.5-0.4,4.5s2.6,3.1,3.7,2.6s1.3-2.5,0.4-4.5
	C-340.5,673.4-342.1,672.2-343.2,672.8z M-348.5,659.3c-1.2,0.4-1.5,2.4-0.8,4.5c0.7,2,2.3,3.3,3.5,2.9c1.2-0.4,1.5-2.4,0.8-4.4
	C-345.8,660.2-347.3,658.8-348.5,659.3z M-33.5,552.9c1.2-0.4,1.5-2.4,0.8-4.5c-0.7-2-2.3-3.3-3.5-2.9s-1.5,2.4-0.8,4.5
	C-36.2,552.1-34.7,553.4-33.5,552.9z M-349.3,648.6c-0.6-2.1-2-3.5-3.2-3.2c-1.2,0.3-1.7,2.3-1.1,4.4c0.6,2.1,2,3.5,3.2,3.2
	C-349.3,652.6-348.8,650.7-349.3,648.6z M-32.6,563.6c0.6,2.1,2,3.5,3.2,3.2s1.7-2.3,1.1-4.4c-0.6-2.1-2-3.5-3.2-3.2
	C-32.7,559.6-33.2,561.5-32.6,563.6z M-352.5,634.6c-0.4-2.1-1.7-3.7-2.9-3.5c-1.2,0.2-1.9,2.1-1.5,4.3c0.4,2.1,1.7,3.7,2.9,3.5
	C-352.8,638.7-352.1,636.8-352.5,634.6z M-29.5,577.6c0.4,2.1,1.7,3.7,2.9,3.5c1.2-0.2,1.9-2.1,1.5-4.2c-0.4-2.1-1.7-3.7-2.9-3.5
	C-29.2,573.5-29.9,575.4-29.5,577.6z M-354.3,620.5c-0.2-2.2-1.3-3.8-2.6-3.7c-1.2,0.1-2.1,1.9-1.9,4.1c0.2,2.2,1.3,3.8,2.6,3.7
	C-355,624.5-354.1,622.6-354.3,620.5z M-27.7,591.7c0.2,2.2,1.3,3.8,2.6,3.7c1.2-0.1,2.1-1.9,1.9-4.1s-1.3-3.8-2.6-3.7
	C-27,587.7-27.9,589.6-27.7,591.7z M-357.2,610.1c1.2,0,2.2-1.8,2.2-3.9s-1-3.9-2.2-3.9c-1.2,0-2.2,1.8-2.2,3.9
	C-359.5,608.4-358.5,610.1-357.2,610.1z M-24.8,602.1c-1.2,0-2.2,1.8-2.2,3.9c0,2.2,1,3.9,2.2,3.9s2.2-1.8,2.2-3.9
	C-22.5,603.8-23.5,602.1-24.8,602.1z M-356.9,595.7c1.2,0.1,2.4-1.6,2.6-3.7c0.2-2.2-0.7-4-1.9-4.1c-1.2-0.1-2.4,1.6-2.6,3.7
	C-359,593.7-358.2,595.5-356.9,595.7z M-25.1,616.6c-1.2-0.1-2.4,1.6-2.6,3.7c-0.2,2.2,0.7,4,1.9,4.1c1.2,0.1,2.4-1.6,2.6-3.7
	C-23,618.5-23.8,616.7-25.1,616.6z M-26.6,631c-1.2-0.2-2.5,1.3-2.9,3.5c-0.4,2.1,0.3,4,1.5,4.3c1.2,0.2,2.5-1.3,2.9-3.5
	C-24.7,633.1-25.4,631.2-26.6,631z M-355.4,581.3c1.2,0.2,2.5-1.3,2.9-3.5c0.4-2.1-0.3-4.1-1.5-4.3c-1.2-0.2-2.5,1.3-2.9,3.5
	C-357.3,579.1-356.6,581-355.4,581.3z M-352.6,567c1.2,0.3,2.6-1.1,3.2-3.2c0.6-2.1,0.1-4.1-1.2-4.4c-1.2-0.3-2.6,1.1-3.2,3.2
	C-354.3,564.8-353.8,566.7-352.6,567z M-29.4,645.2c-1.2-0.3-2.6,1.1-3.2,3.2c-0.5,2.1,0,4.1,1.2,4.4s2.6-1.1,3.2-3.2
	C-27.7,647.4-28.2,645.5-29.4,645.2z M-33.4,659.1c-1.2-0.4-2.7,0.9-3.5,2.9c-0.7,2-0.4,4,0.8,4.4c1.2,0.4,2.7-0.9,3.4-2.9
	C-31.9,661.5-32.3,659.5-33.4,659.1z M-348.6,553.1c1.2,0.4,2.7-0.9,3.5-2.9c0.7-2,0.4-4-0.8-4.4c-1.2-0.4-2.7,0.9-3.5,2.9
	C-350.1,550.7-349.7,552.7-348.6,553.1z M-38.7,672.6c-1.1-0.5-2.8,0.6-3.7,2.6c-0.9,2-0.8,4,0.4,4.5c1.1,0.5,2.8-0.6,3.7-2.6
	S-37.5,673.1-38.7,672.6z M-343.3,539.6c1.1,0.5,2.8-0.7,3.7-2.6c0.9-2,0.8-4-0.4-4.5c-1.1-0.5-2.8,0.7-3.7,2.6
	C-344.6,537.1-344.5,539.1-343.3,539.6z M-333,524.3c1.1-1.9,1.1-3.9,0-4.5c-1.1-0.6-2.8,0.4-3.9,2.3c-1.1,1.9-1.1,3.9,0,4.5
	C-335.9,527.2-334.1,526.2-333,524.3z M-49,687.9c-1.1,1.9-1.1,3.9,0,4.5s2.8-0.4,3.9-2.3s1.1-3.9,0-4.5
	C-46.1,685-47.9,686-49,687.9z M-56.6,699.9c-1.2,1.8-1.4,3.8-0.4,4.5s2.9-0.2,4.1-1.9c1.2-1.8,1.4-3.8,0.4-4.5
	C-53.6,697.3-55.4,698.1-56.6,699.9z M-325.3,512.3c1.2-1.8,1.4-3.8,0.4-4.5c-1-0.7-2.8,0.2-4.1,1.9c-1.2,1.8-1.4,3.8-0.4,4.5
	S-326.6,514.1-325.3,512.3z M-65.4,711.3c-1.4,1.7-1.8,3.6-0.8,4.4s2.9,0.1,4.2-1.6c1.4-1.7,1.8-3.6,0.8-4.4
	C-62.1,708.9-64,709.6-65.4,711.3z M-316.6,501c1.4-1.7,1.8-3.7,0.8-4.5c-1-0.8-2.9-0.1-4.2,1.6c-1.4,1.7-1.8,3.7-0.8,4.5
	C-319.9,503.3-318,502.6-316.6,501z M-75,721.8c-1.5,1.5-2.1,3.5-1.2,4.4s2.8,0.4,4.4-1.2c1.5-1.5,2.1-3.5,1.2-4.4
	C-71.5,719.7-73.5,720.3-75,721.8z M-307,490.4c1.5-1.5,2.1-3.5,1.2-4.4c-0.9-0.9-2.8-0.3-4.4,1.2c-1.5,1.5-2.1,3.5-1.2,4.4
	S-308.5,492-307,490.4z M-85.6,731.4c-1.7,1.4-2.4,3.3-1.6,4.2c0.8,0.9,2.8,0.6,4.5-0.8s2.4-3.3,1.6-4.2S-83.9,730-85.6,731.4z
	 M-296.4,480.8c1.7-1.4,2.4-3.3,1.6-4.2c-0.8-0.9-2.8-0.6-4.5,0.8c-1.7,1.4-2.4,3.3-1.6,4.2C-300.1,482.5-298.1,482.2-296.4,480.8z
	 M-96.9,740.1c-1.8,1.2-2.6,3.1-1.9,4.1s2.7,0.8,4.5-0.4c1.8-1.2,2.6-3.1,1.9-4.1S-95.1,738.9-96.9,740.1z M-285.1,472.1
	c1.8-1.2,2.6-3.1,1.9-4.1c-0.7-1-2.7-0.8-4.5,0.4c-1.8,1.2-2.6,3.1-1.9,4.1C-288.9,473.5-286.9,473.3-285.1,472.1z M-109,747.8
	c-1.9,1.1-2.9,2.8-2.3,3.9s2.6,1.1,4.5,0s2.9-2.8,2.3-3.9C-105.1,746.7-107.1,746.7-109,747.8z M-273,464.4c1.9-1.1,2.9-2.8,2.3-3.9
	c-0.6-1.1-2.6-1.1-4.5,0c-1.9,1.1-2.9,2.8-2.3,3.9C-276.9,465.5-274.9,465.5-273,464.4z M-121.7,754.4c-2,0.9-3.1,2.6-2.6,3.7
	s2.5,1.3,4.5,0.4c2-0.9,3.1-2.6,2.6-3.7C-117.7,753.7-119.7,753.5-121.7,754.4z M-260.3,457.8c2-0.9,3.1-2.6,2.6-3.7
	s-2.5-1.3-4.5-0.4s-3.1,2.6-2.6,3.7C-264.3,458.6-262.3,458.7-260.3,457.8z M-134.9,759.9c-2,0.8-3.4,2.3-2.9,3.4
	c0.4,1.2,2.4,1.5,4.5,0.8c2-0.7,3.3-2.3,2.9-3.5C-130.9,759.5-132.9,759.1-134.9,759.9z M-247.1,452.3c2-0.8,3.4-2.3,2.9-3.5
	c-0.4-1.2-2.4-1.5-4.5-0.8c-2,0.7-3.4,2.3-2.9,3.4C-251.1,452.7-249.1,453.1-247.1,452.3z M-233.4,448c2.1-0.6,3.5-2,3.2-3.2
	c-0.3-1.2-2.3-1.7-4.4-1.2c-2.1,0.6-3.5,2-3.2,3.2C-237.5,448.1-235.6,448.6-233.4,448z M-148.5,764.2c-2.1,0.6-3.6,2-3.2,3.2
	c0.3,1.2,2.3,1.7,4.4,1.2c2.1-0.6,3.5-2,3.2-3.2C-144.5,764.1-146.4,763.6-148.5,764.2z M-162.5,767.3c-2.1,0.4-3.7,1.7-3.5,2.9
	s2.1,1.9,4.3,1.5c2.1-0.4,3.7-1.7,3.5-2.9C-158.5,767.6-160.4,766.9-162.5,767.3z M-219.5,444.9c2.1-0.4,3.7-1.7,3.5-2.9
	c-0.2-1.2-2.1-1.9-4.3-1.5c-2.1,0.4-3.7,1.7-3.5,2.9C-223.5,444.6-221.6,445.3-219.5,444.9z M-205.3,443.1c2.2-0.2,3.8-1.3,3.7-2.6
	c-0.1-1.2-1.9-2.1-4.1-1.9c-2.2,0.2-3.8,1.3-3.7,2.6C-209.3,442.4-207.5,443.3-205.3,443.1z M-176.7,769.1c-2.2,0.2-3.8,1.3-3.7,2.6
	c0.1,1.2,2,2.1,4.1,1.9c2.1-0.2,3.8-1.3,3.7-2.6S-174.5,768.9-176.7,769.1z M-191,438c-2.2,0-3.9,1-3.9,2.2s1.8,2.2,3.9,2.2
	c2.2,0,3.9-1,3.9-2.2S-188.8,438-191,438z M-191,769.8c-2.2,0-3.9,1-3.9,2.2c0,1.2,1.8,2.2,3.9,2.2c2.2,0,3.9-1,3.9-2.2
	C-187.1,770.8-188.8,769.8-191,769.8z"/>
<rect x="-395" y="421.3" class="st2" width="408" height="369.7"/>
<g>
	<defs>
		<path id="XMLID_18_" d="M-190.8,757c142.7,0,150.7-134,151.3-148c0.7-14,65.3-197.3,65.3-197.3s-259.3-58.4-271.3-58
			c-247.3,8-108,425.3-108,425.3l44.7-74.7C-308.8,704.4-265.5,757-190.8,757z"/>
	</defs>
	<clipPath id="XMLID_2_">
		<use xlink:href="#XMLID_18_"  style="overflow:visible;"/>
	</clipPath>
	<g class="st3">
		<path class="st4" d="M-189.4,764.8c1.1,0,2.2,0,3.2,0c65.5-0.5,83.9-14.9,86.4-21.6c2.5-6.9-13.8-25.1-13.8-25.1s0-18.2-1.3-28.5
			c-1.3-10.3-27.8-25.1-27.8-25.1s-3.8-6.9-7.6-9.1s-10.1-4.5-10.1-4.5s-5-8.5-7.6-10.2c-2.5-1.7-11.3-5.7-11.3-5.7l10.1-62.7
			l-10.1-4.5v-4.5c0,0,6.3-1.7,6.3-4.5s-3.8-5.7-3.8-5.7s-1.9-5.2,2.5-6.9c4.4-1.7,37.9-9.7,56.8-29.6
			c18.9-19.9,29.7-50.7,22.8-59.2c-6.9-8.5-43-4.5-43-4.5h-49.8h-0.7h-49.8c0,0-36-4-43,4.5c-6.9,8.5,3.8,39.3,22.8,59.2
			c19,19.9,52.4,27.9,56.8,29.6c4.4,1.7,2.5,6.9,2.5,6.9s-3.8,2.8-3.8,5.7s6.3,4.5,6.3,4.5v4.5l-10.1,4.5l10.1,62.7
			c0,0-8.8,4-11.3,5.7s-7.6,10.2-7.6,10.2s-6.3,2.3-10.1,4.5c-3.8,2.3-7.6,9.1-7.6,9.1s-26.5,14.9-27.8,25.1
			c-1.3,10.2-1.3,28.5-1.3,28.5s-16.5,18.2-13.8,25.1C-273.4,749.9-255.1,764.4-189.4,764.8z M-126.9,461.8c0,0,14.6-2.3,17.7,0
			c3.1,2.3,3.8,9.1,2.5,18.2c-1.3,9.1-13.8,22.8-13.8,22.8s-1.9-13.7-2.5-21.6C-123.7,473.2-126.9,461.8-126.9,461.8z M-247.5,461.8
			c0,0-3.1,11.4-3.8,19.4c-0.6,8-2.5,21.6-2.5,21.6s-12.6-13.7-13.8-22.8c-1.3-9.1-0.6-15.9,2.5-18.2
			C-262.1,459.5-247.5,461.8-247.5,461.8z"/>
		<g>
			<g>
				<defs>
					<path id="SVGID_1_" d="M-189.4,764.8c1.1,0,2.2,0,3.2,0c65.5-0.5,83.9-14.9,86.4-21.6c2.5-6.9-13.8-25.1-13.8-25.1
						s0-18.2-1.3-28.5c-1.3-10.3-27.8-25.1-27.8-25.1s-3.8-6.9-7.6-9.1s-10.1-4.5-10.1-4.5s-5-8.5-7.6-10.2
						c-2.5-1.7-11.3-5.7-11.3-5.7l10.1-62.7l-10.1-4.5v-4.5c0,0,6.3-1.7,6.3-4.5s-3.8-5.7-3.8-5.7s-1.9-5.2,2.5-6.9
						c4.4-1.7,37.9-9.7,56.8-29.6c18.9-19.9,29.7-50.7,22.8-59.2c-6.9-8.5-43-4.5-43-4.5h-49.8h-0.7h-49.8c0,0-36-4-43,4.5
						c-6.9,8.5,3.8,39.3,22.8,59.2c19,19.9,52.4,27.9,56.8,29.6c4.4,1.7,2.5,6.9,2.5,6.9s-3.8,2.8-3.8,5.7s6.3,4.5,6.3,4.5v4.5
						l-10.1,4.5l10.1,62.7c0,0-8.8,4-11.3,5.7s-7.6,10.2-7.6,10.2s-6.3,2.3-10.1,4.5c-3.8,2.3-7.6,9.1-7.6,9.1s-26.5,14.9-27.8,25.1
						c-1.3,10.2-1.3,28.5-1.3,28.5s-16.5,18.2-13.8,25.1C-273.4,749.9-255.1,764.4-189.4,764.8z M-126.9,461.8c0,0,14.6-2.3,17.7,0
						c3.1,2.3,3.8,9.1,2.5,18.2c-1.3,9.1-13.8,22.8-13.8,22.8s-1.9-13.7-2.5-21.6C-123.7,473.2-126.9,461.8-126.9,461.8z
						 M-247.5,461.8c0,0-3.1,11.4-3.8,19.4c-0.6,8-2.5,21.6-2.5,21.6s-12.6-13.7-13.8-22.8c-1.3-9.1-0.6-15.9,2.5-18.2
						C-262.1,459.5-247.5,461.8-247.5,461.8z"/>
				</defs>
				<clipPath id="SVGID_2_">
					<use xlink:href="#SVGID_1_"  style="overflow:visible;"/>
				</clipPath>
				<path class="st5" d="M-269,684c0,0,19.4,15.9,82.1,15.9s83.4-19.4,83.4-19.4l17.7,68.4c0,0-40.8,33.1-101.1,33.1
					s-103.6-28.5-103.6-28.5L-269,684z"/>
			</g>
		</g>
		<g class="st6">
			<g>
				<defs>
					<path id="SVGID_3_" d="M-189.4,764.8c1.1,0,2.2,0,3.2,0c65.5-0.5,83.9-14.9,86.4-21.6c2.5-6.9-13.8-25.1-13.8-25.1
						s0-18.2-1.3-28.5c-1.3-10.3-27.8-25.1-27.8-25.1s-3.8-6.9-7.6-9.1s-10.1-4.5-10.1-4.5s-5-8.5-7.6-10.2
						c-2.5-1.7-11.3-5.7-11.3-5.7l10.1-62.7l-10.1-4.5v-4.5c0,0,6.3-1.7,6.3-4.5s-3.8-5.7-3.8-5.7s-1.9-5.2,2.5-6.9
						c4.4-1.7,37.9-9.7,56.8-29.6c18.9-19.9,29.7-50.7,22.8-59.2c-6.9-8.5-43-4.5-43-4.5h-49.8h-0.7h-49.8c0,0-36-4-43,4.5
						c-6.9,8.5,3.8,39.3,22.8,59.2c19,19.9,52.4,27.9,56.8,29.6c4.4,1.7,2.5,6.9,2.5,6.9s-3.8,2.8-3.8,5.7s6.3,4.5,6.3,4.5v4.5
						l-10.1,4.5l10.1,62.7c0,0-8.8,4-11.3,5.7s-7.6,10.2-7.6,10.2s-6.3,2.3-10.1,4.5c-3.8,2.3-7.6,9.1-7.6,9.1s-26.5,14.9-27.8,25.1
						c-1.3,10.2-1.3,28.5-1.3,28.5s-16.5,18.2-13.8,25.1C-273.4,749.9-255.1,764.4-189.4,764.8z M-126.9,461.8c0,0,14.6-2.3,17.7,0
						c3.1,2.3,3.8,9.1,2.5,18.2c-1.3,9.1-13.8,22.8-13.8,22.8s-1.9-13.7-2.5-21.6C-123.7,473.2-126.9,461.8-126.9,461.8z
						 M-247.5,461.8c0,0-3.1,11.4-3.8,19.4c-0.6,8-2.5,21.6-2.5,21.6s-12.6-13.7-13.8-22.8c-1.3-9.1-0.6-15.9,2.5-18.2
						C-262.1,459.5-247.5,461.8-247.5,461.8z"/>
				</defs>
				<clipPath id="SVGID_4_">
					<use xlink:href="#SVGID_3_"  style="overflow:visible;"/>
				</clipPath>
				<path class="st7" d="M-110,768.3c0,0,1.9-25.6-2.5-29.6s-12.6-12.6-12.6-12.6l-1.3-34.2l-5-3.4c0,0-1.9-7.4-6.3-10.2
					c-4.4-2.8-11.3-6.9-11.3-6.9s0.6-7.4-3.8-9.1c-4.4-1.7-11.3-4.5-11.3-4.5l-5-4.5c0,0-1.3-6.9-3.8-8c-2.5-1.2-7.6-5.7-7.6-5.7
					l2.5-4.5l13.8-66.1l-1.3-18.2l45.5-19.4l54.3-51.3L-76,435.5l-31.6-6.9l-24,6.9c0,0,28.4,17.7,30.3,19.4
					c1.9,1.7,8.2,21.1-5,39.8c-13.2,18.8-24,30.2-32.8,35.3c-8.8,5.2-13.2,9.1-19,10.2c-5.7,1.2-19,5.7-19,5.7l-3.8,5.7
					c0,0,4.4,4.5,5,5.7s-5,3.4-5,3.4l1.3,6.9l5,4.5l-6.3,58.1l-1.3,5.7c0,0-2.1,1.2-5,1.2c-2.9,0-4.6,0.7-6.3,1.2
					c-1.7,0.4-5,4.5-5,4.5s-5.9-0.4-7.6,2.3s-3.8,6.9-3.8,6.9s1.7,1.5,10.1,2.3c8.4,0.7,12.6,0,12.6,0l-12.6,5.7
					c0,0-13.8-2.3-17.7,0c-3.8,2.3-7.6,6.9-7.6,6.9s4.6,3.1,13.8,3.4c9.2,0.4,19,0,19,0l-8.8,5.7c0,0-18.6-3.8-25.3-1.2
					s-9.7,8.3-10.1,10.2c-0.4,1.9-1.3,4.5-1.3,4.5h-3.8c0,0-7.1-0.7-10.1-2.3c-2.9-1.5-5-3.4-5-3.4l-16.5-1.2l-8.8,68.4l109.9,53.5
					L-110,768.3z"/>
			</g>
		</g>
		<g class="st8">
			<g>
				<defs>
					<path id="SVGID_5_" d="M-189.4,764.8c1.1,0,2.2,0,3.2,0c65.5-0.5,83.9-14.9,86.4-21.6c2.5-6.9-13.8-25.1-13.8-25.1
						s0-18.2-1.3-28.5c-1.3-10.3-27.8-25.1-27.8-25.1s-3.8-6.9-7.6-9.1s-10.1-4.5-10.1-4.5s-5-8.5-7.6-10.2
						c-2.5-1.7-11.3-5.7-11.3-5.7l10.1-62.7l-10.1-4.5v-4.5c0,0,6.3-1.7,6.3-4.5s-3.8-5.7-3.8-5.7s-1.9-5.2,2.5-6.9
						c4.4-1.7,37.9-9.7,56.8-29.6c18.9-19.9,29.7-50.7,22.8-59.2c-6.9-8.5-43-4.5-43-4.5h-49.8h-0.7h-49.8c0,0-36-4-43,4.5
						c-6.9,8.5,3.8,39.3,22.8,59.2c19,19.9,52.4,27.9,56.8,29.6c4.4,1.7,2.5,6.9,2.5,6.9s-3.8,2.8-3.8,5.7s6.3,4.5,6.3,4.5v4.5
						l-10.1,4.5l10.1,62.7c0,0-8.8,4-11.3,5.7s-7.6,10.2-7.6,10.2s-6.3,2.3-10.1,4.5c-3.8,2.3-7.6,9.1-7.6,9.1s-26.5,14.9-27.8,25.1
						c-1.3,10.2-1.3,28.5-1.3,28.5s-16.5,18.2-13.8,25.1C-273.4,749.9-255.1,764.4-189.4,764.8z M-126.9,461.8c0,0,14.6-2.3,17.7,0
						c3.1,2.3,3.8,9.1,2.5,18.2c-1.3,9.1-13.8,22.8-13.8,22.8s-1.9-13.7-2.5-21.6C-123.7,473.2-126.9,461.8-126.9,461.8z
						 M-247.5,461.8c0,0-3.1,11.4-3.8,19.4c-0.6,8-2.5,21.6-2.5,21.6s-12.6-13.7-13.8-22.8c-1.3-9.1-0.6-15.9,2.5-18.2
						C-262.1,459.5-247.5,461.8-247.5,461.8z"/>
				</defs>
				<clipPath id="SVGID_6_">
					<use xlink:href="#SVGID_5_"  style="overflow:visible;"/>
				</clipPath>
				<path class="st9" d="M-264,768.3c0,0-1.9-25.6,2.5-29.6c4.4-4,12.6-12.5,12.6-12.5l1.3-34.2l5-3.4c0,0,1.9-7.4,6.3-10.2
					c4.4-2.8,11.3-6.9,11.3-6.9s-0.6-7.4,3.8-9.1c4.4-1.7,11.3-4.5,11.3-4.5l5-4.5c0,0,1.3-6.9,3.8-8c2.5-1.2,7.6-5.7,7.6-5.7
					l-2.5-4.5l-13.8-66.1l1.3-18.2l-45.5-19.4l-54.4-51.3l10.1-44.5l31.6-6.9l24,6.9c0,0-28.4,17.7-30.3,19.4
					c-1.9,1.7-8.2,21.1,5,39.8c13.2,18.7,24,30.2,32.8,35.3c8.8,5.2,13.2,9.1,19,10.2c5.7,1.2,19,5.7,19,5.7l3.8,5.7
					c0,0-4.4,4.5-5,5.7s5,3.4,5,3.4l-1.3,6.9l-5,4.5l6.3,58.1l1.3,5.7c0,0,2.1,1.2,5,1.2s4.6,0.7,6.3,1.2c1.7,0.4,5,4.5,5,4.5
					s5.9-0.4,7.6,2.3c1.7,2.6,3.8,6.9,3.8,6.9s-1.7,1.5-10.1,2.3c-8.4,0.7-12.6,0-12.6,0l12.5,5.6c0,0,13.8-2.3,17.7,0
					s7.6,6.9,7.6,6.9s-4.6,3.1-13.8,3.4c-9.2,0.4-19,0-19,0l8.8,5.7c0,0,18.6-3.8,25.3-1.2s9.7,8.3,10.1,10.2
					c0.4,1.9,1.3,4.5,1.3,4.5h3.8c0,0,7.1-0.7,10.1-2.3c2.9-1.5,5-3.4,5-3.4l16.5-1.2l8.8,68.4l-109.9,53.5L-264,768.3z"/>
			</g>
		</g>
		<path class="st10" d="M-189.4,764.8c1.1,0,2.2,0,3.2,0c65.5-0.5,83.9-14.9,86.4-21.6c2.5-6.9-13.8-25.1-13.8-25.1s0-18.2-1.3-28.5
			c-1.3-10.3-27.8-25.1-27.8-25.1s-3.8-6.9-7.6-9.1s-10.1-4.5-10.1-4.5s-5-8.5-7.6-10.2c-2.5-1.7-11.3-5.7-11.3-5.7l10.1-62.7
			l-10.1-4.5v-4.5c0,0,6.3-1.7,6.3-4.5s-3.8-5.7-3.8-5.7s-1.9-5.2,2.5-6.9c4.4-1.7,37.9-9.7,56.8-29.6
			c18.9-19.9,29.7-50.7,22.8-59.2c-6.9-8.5-43-4.5-43-4.5h-49.8h-0.7h-49.8c0,0-36-4-43,4.5c-6.9,8.5,3.8,39.3,22.8,59.2
			c19,19.9,52.4,27.9,56.8,29.6c4.4,1.7,2.5,6.9,2.5,6.9s-3.8,2.8-3.8,5.7s6.3,4.5,6.3,4.5v4.5l-10.1,4.5l10.1,62.7
			c0,0-8.8,4-11.3,5.7s-7.6,10.2-7.6,10.2s-6.3,2.3-10.1,4.5c-3.8,2.3-7.6,9.1-7.6,9.1s-26.5,14.9-27.8,25.1
			c-1.3,10.2-1.3,28.5-1.3,28.5s-16.5,18.2-13.8,25.1C-273.4,749.9-255.1,764.4-189.4,764.8z M-126.9,461.8c0,0,14.6-2.3,17.7,0
			c3.1,2.3,3.8,9.1,2.5,18.2c-1.3,9.1-13.8,22.8-13.8,22.8s-1.9-13.7-2.5-21.6C-123.7,473.2-126.9,461.8-126.9,461.8z M-247.5,461.8
			c0,0-3.1,11.4-3.8,19.4c-0.6,8-2.5,21.6-2.5,21.6s-12.6-13.7-13.8-22.8c-1.3-9.1-0.6-15.9,2.5-18.2
			C-262.1,459.5-247.5,461.8-247.5,461.8z"/>
	</g>
</g>
</svg>
